<mxfile host="app.diagrams.net" modified="2024-02-22T15:18:35.412Z" agent="Mozilla/5.0 (Windows NT 10.0; Win64; x64) AppleWebKit/537.36 (KHTML, like Gecko) Chrome/121.0.0.0 Safari/537.36" etag="aCsTk5bqC2PXTDKXWVTZ" version="23.1.5" type="google">
  <diagram name="Page-1" id="ohH6J3QiO57mau_LwazS">
    <mxGraphModel grid="1" page="1" gridSize="10" guides="1" tooltips="1" connect="1" arrows="1" fold="1" pageScale="1" pageWidth="850" pageHeight="1100" math="0" shadow="0">
      <root>
        <mxCell id="0" />
        <mxCell id="1" parent="0" />
        <mxCell id="VbPNYPBAlCRiUKL5gvJH-1" value="Instructor" style="swimlane;fontStyle=1;align=center;verticalAlign=top;childLayout=stackLayout;horizontal=1;startSize=26;horizontalStack=0;resizeParent=1;resizeLast=0;collapsible=1;marginBottom=0;rounded=0;shadow=0;strokeWidth=1;fillColor=#B0E3E6;" vertex="1" parent="1">
          <mxGeometry x="40" y="-10" width="160" height="450" as="geometry">
            <mxRectangle x="230" y="140" width="160" height="26" as="alternateBounds" />
          </mxGeometry>
        </mxCell>
        <mxCell id="VbPNYPBAlCRiUKL5gvJH-2" value="Instructor_ID      (PK)" style="text;align=left;verticalAlign=top;spacingLeft=4;spacingRight=4;overflow=hidden;rotatable=0;points=[[0,0.5],[1,0.5]];portConstraint=eastwest;fillColor=#F8CECC;strokeColor=#6c8ebf;" vertex="1" parent="VbPNYPBAlCRiUKL5gvJH-1">
          <mxGeometry y="26" width="160" height="32" as="geometry" />
        </mxCell>
        <mxCell id="VbPNYPBAlCRiUKL5gvJH-3" value="Super_ID (FK)" style="text;html=1;align=left;verticalAlign=middle;resizable=0;points=[];autosize=1;strokeColor=#b85450;fillColor=#FFF2CC;" vertex="1" parent="VbPNYPBAlCRiUKL5gvJH-1">
          <mxGeometry y="58" width="160" height="30" as="geometry" />
        </mxCell>
        <mxCell id="VbPNYPBAlCRiUKL5gvJH-4" value="Branch_ID&amp;nbsp;&amp;nbsp;&amp;nbsp;&amp;nbsp;&amp;nbsp;&amp;nbsp;&amp;nbsp; (FK)" style="text;html=1;align=left;verticalAlign=middle;resizable=0;points=[];autosize=1;strokeColor=#b85450;fillColor=#FFF2CC;" vertex="1" parent="VbPNYPBAlCRiUKL5gvJH-1">
          <mxGeometry y="88" width="160" height="30" as="geometry" />
        </mxCell>
        <mxCell id="VbPNYPBAlCRiUKL5gvJH-15" value="ZipCode (FK)" style="text;align=left;verticalAlign=top;spacingLeft=4;spacingRight=4;overflow=hidden;rotatable=0;points=[[0,0.5],[1,0.5]];portConstraint=eastwest;rounded=0;shadow=0;html=0;fillColor=#FFF2CC;strokeColor=#b85450;" vertex="1" parent="VbPNYPBAlCRiUKL5gvJH-1">
          <mxGeometry y="118" width="160" height="30" as="geometry" />
        </mxCell>
        <mxCell id="VbPNYPBAlCRiUKL5gvJH-6" value="Lname" style="text;html=1;align=left;verticalAlign=middle;resizable=0;points=[];autosize=1;strokeColor=none;fillColor=none;" vertex="1" parent="VbPNYPBAlCRiUKL5gvJH-1">
          <mxGeometry y="148" width="160" height="30" as="geometry" />
        </mxCell>
        <mxCell id="VbPNYPBAlCRiUKL5gvJH-5" value="Fname" style="text;html=1;align=left;verticalAlign=middle;resizable=0;points=[];autosize=1;strokeColor=none;fillColor=none;" vertex="1" parent="VbPNYPBAlCRiUKL5gvJH-1">
          <mxGeometry y="178" width="160" height="30" as="geometry" />
        </mxCell>
        <mxCell id="VbPNYPBAlCRiUKL5gvJH-7" value="Salary" style="text;html=1;align=left;verticalAlign=middle;resizable=0;points=[];autosize=1;strokeColor=none;fillColor=none;" vertex="1" parent="VbPNYPBAlCRiUKL5gvJH-1">
          <mxGeometry y="208" width="160" height="30" as="geometry" />
        </mxCell>
        <mxCell id="VbPNYPBAlCRiUKL5gvJH-8" value="Gender" style="text;html=1;align=left;verticalAlign=middle;resizable=0;points=[];autosize=1;strokeColor=none;fillColor=none;" vertex="1" parent="VbPNYPBAlCRiUKL5gvJH-1">
          <mxGeometry y="238" width="160" height="30" as="geometry" />
        </mxCell>
        <mxCell id="VbPNYPBAlCRiUKL5gvJH-9" value="DOB" style="text;html=1;align=left;verticalAlign=middle;resizable=0;points=[];autosize=1;strokeColor=none;fillColor=none;" vertex="1" parent="VbPNYPBAlCRiUKL5gvJH-1">
          <mxGeometry y="268" width="160" height="30" as="geometry" />
        </mxCell>
        <mxCell id="VbPNYPBAlCRiUKL5gvJH-10" value="HiringDate" style="text;html=1;align=left;verticalAlign=middle;resizable=0;points=[];autosize=1;strokeColor=none;fillColor=none;" vertex="1" parent="VbPNYPBAlCRiUKL5gvJH-1">
          <mxGeometry y="298" width="160" height="30" as="geometry" />
        </mxCell>
        <mxCell id="VbPNYPBAlCRiUKL5gvJH-11" value="&lt;div&gt;Position&lt;/div&gt;" style="text;html=1;align=left;verticalAlign=middle;resizable=0;points=[];autosize=1;strokeColor=none;fillColor=none;" vertex="1" parent="VbPNYPBAlCRiUKL5gvJH-1">
          <mxGeometry y="328" width="160" height="30" as="geometry" />
        </mxCell>
        <mxCell id="VbPNYPBAlCRiUKL5gvJH-12" value="&lt;div&gt;Degree&lt;/div&gt;" style="text;html=1;align=left;verticalAlign=middle;resizable=0;points=[];autosize=1;strokeColor=none;fillColor=none;" vertex="1" parent="VbPNYPBAlCRiUKL5gvJH-1">
          <mxGeometry y="358" width="160" height="30" as="geometry" />
        </mxCell>
        <mxCell id="VbPNYPBAlCRiUKL5gvJH-13" value="#ExperienceYears" style="text;html=1;align=left;verticalAlign=middle;resizable=0;points=[];autosize=1;strokeColor=none;fillColor=none;" vertex="1" parent="VbPNYPBAlCRiUKL5gvJH-1">
          <mxGeometry y="388" width="160" height="30" as="geometry" />
        </mxCell>
        <mxCell id="VbPNYPBAlCRiUKL5gvJH-14" value="Email" style="text;html=1;align=left;verticalAlign=middle;resizable=0;points=[];autosize=1;strokeColor=none;fillColor=none;" vertex="1" parent="VbPNYPBAlCRiUKL5gvJH-1">
          <mxGeometry y="418" width="160" height="30" as="geometry" />
        </mxCell>
        <mxCell id="VbPNYPBAlCRiUKL5gvJH-16" value="Instructor_Address" style="swimlane;whiteSpace=wrap;html=1;fillColor=#B0E3E6;" vertex="1" parent="1">
          <mxGeometry x="-210" y="90" width="200" height="110" as="geometry" />
        </mxCell>
        <mxCell id="VbPNYPBAlCRiUKL5gvJH-17" value="City" style="text;html=1;align=left;verticalAlign=middle;resizable=0;points=[];autosize=1;strokeColor=none;fillColor=none;" vertex="1" parent="VbPNYPBAlCRiUKL5gvJH-16">
          <mxGeometry y="52" width="160" height="30" as="geometry" />
        </mxCell>
        <mxCell id="VbPNYPBAlCRiUKL5gvJH-18" value="Street" style="text;align=left;verticalAlign=top;spacingLeft=4;spacingRight=4;overflow=hidden;rotatable=0;points=[[0,0.5],[1,0.5]];portConstraint=eastwest;rounded=0;shadow=0;html=0;" vertex="1" parent="VbPNYPBAlCRiUKL5gvJH-16">
          <mxGeometry y="82" width="200" height="28" as="geometry" />
        </mxCell>
        <mxCell id="VbPNYPBAlCRiUKL5gvJH-19" value="ZipCode (PK)" style="text;align=left;verticalAlign=top;spacingLeft=4;spacingRight=4;overflow=hidden;rotatable=0;points=[[0,0.5],[1,0.5]];portConstraint=eastwest;fillColor=#F8CECC;strokeColor=#6c8ebf;" vertex="1" parent="VbPNYPBAlCRiUKL5gvJH-16">
          <mxGeometry y="20" width="200" height="32" as="geometry" />
        </mxCell>
        <mxCell id="VbPNYPBAlCRiUKL5gvJH-23" value="Instructor_Phone" style="swimlane;fontStyle=1;align=center;verticalAlign=top;childLayout=stackLayout;horizontal=1;startSize=26;horizontalStack=0;resizeParent=1;resizeLast=0;collapsible=1;marginBottom=0;rounded=0;shadow=0;strokeWidth=1;fillColor=#B0E3E6;" vertex="1" parent="1">
          <mxGeometry x="-210" y="-10" width="200" height="80" as="geometry">
            <mxRectangle x="550" y="140" width="160" height="26" as="alternateBounds" />
          </mxGeometry>
        </mxCell>
        <mxCell id="VbPNYPBAlCRiUKL5gvJH-24" value="Instructor_ID    (FK)" style="text;align=left;verticalAlign=top;spacingLeft=4;spacingRight=4;overflow=hidden;rotatable=0;points=[[0,0.5],[1,0.5]];portConstraint=eastwest;fillColor=#FFF2CC;strokeColor=#9673a6;" vertex="1" parent="VbPNYPBAlCRiUKL5gvJH-23">
          <mxGeometry y="26" width="200" height="26" as="geometry" />
        </mxCell>
        <mxCell id="VbPNYPBAlCRiUKL5gvJH-25" value=" Phone    (Composite)" style="text;align=left;verticalAlign=top;spacingLeft=4;spacingRight=4;overflow=hidden;rotatable=0;points=[[0,0.5],[1,0.5]];portConstraint=eastwest;rounded=0;shadow=0;html=0;fillColor=#FFF2CC;strokeColor=#9673a6;" vertex="1" parent="VbPNYPBAlCRiUKL5gvJH-23">
          <mxGeometry y="52" width="200" height="26" as="geometry" />
        </mxCell>
        <mxCell id="VbPNYPBAlCRiUKL5gvJH-28" value="" style="endArrow=classic;html=1;rounded=0;exitX=0;exitY=0.5;exitDx=0;exitDy=0;" edge="1" parent="1" source="VbPNYPBAlCRiUKL5gvJH-15" target="VbPNYPBAlCRiUKL5gvJH-19">
          <mxGeometry width="50" height="50" relative="1" as="geometry">
            <mxPoint x="-20" y="140" as="sourcePoint" />
            <mxPoint y="130" as="targetPoint" />
          </mxGeometry>
        </mxCell>
        <mxCell id="VbPNYPBAlCRiUKL5gvJH-29" value="" style="endArrow=classic;html=1;rounded=0;entryX=1;entryY=0.5;entryDx=0;entryDy=0;exitX=0;exitY=0.5;exitDx=0;exitDy=0;" edge="1" parent="1" source="VbPNYPBAlCRiUKL5gvJH-2" target="VbPNYPBAlCRiUKL5gvJH-23">
          <mxGeometry width="50" height="50" relative="1" as="geometry">
            <mxPoint x="40" y="40" as="sourcePoint" />
            <mxPoint x="90" y="-10" as="targetPoint" />
          </mxGeometry>
        </mxCell>
        <mxCell id="VbPNYPBAlCRiUKL5gvJH-30" value="ITI" style="swimlane;fontStyle=0;align=center;verticalAlign=top;childLayout=stackLayout;horizontal=1;startSize=26;horizontalStack=0;resizeParent=1;resizeLast=0;collapsible=1;marginBottom=0;rounded=0;shadow=0;strokeWidth=1;fillColor=#B0E3E6;" vertex="1" parent="1">
          <mxGeometry x="265" y="50" width="160" height="174" as="geometry">
            <mxRectangle x="340" y="380" width="170" height="26" as="alternateBounds" />
          </mxGeometry>
        </mxCell>
        <mxCell id="VbPNYPBAlCRiUKL5gvJH-31" value="Branch_ID     (PK)" style="text;align=left;verticalAlign=top;spacingLeft=4;spacingRight=4;overflow=hidden;rotatable=0;points=[[0,0.5],[1,0.5]];portConstraint=eastwest;fillColor=#F8CECC;strokeColor=#6c8ebf;" vertex="1" parent="VbPNYPBAlCRiUKL5gvJH-30">
          <mxGeometry y="26" width="160" height="28" as="geometry" />
        </mxCell>
        <mxCell id="VbPNYPBAlCRiUKL5gvJH-32" value="B_Location" style="text;html=1;align=left;verticalAlign=middle;resizable=0;points=[];autosize=1;strokeColor=none;fillColor=none;" vertex="1" parent="VbPNYPBAlCRiUKL5gvJH-30">
          <mxGeometry y="54" width="160" height="30" as="geometry" />
        </mxCell>
        <mxCell id="VbPNYPBAlCRiUKL5gvJH-33" value="B_Name" style="text;html=1;align=left;verticalAlign=middle;resizable=0;points=[];autosize=1;strokeColor=none;fillColor=none;" vertex="1" parent="VbPNYPBAlCRiUKL5gvJH-30">
          <mxGeometry y="84" width="160" height="30" as="geometry" />
        </mxCell>
        <mxCell id="VbPNYPBAlCRiUKL5gvJH-34" value="Founding_Date" style="text;html=1;align=left;verticalAlign=middle;resizable=0;points=[];autosize=1;strokeColor=none;fillColor=none;" vertex="1" parent="VbPNYPBAlCRiUKL5gvJH-30">
          <mxGeometry y="114" width="160" height="30" as="geometry" />
        </mxCell>
        <mxCell id="VbPNYPBAlCRiUKL5gvJH-36" value="MngrName" style="text;html=1;align=left;verticalAlign=middle;resizable=0;points=[];autosize=1;strokeColor=none;fillColor=none;" vertex="1" parent="VbPNYPBAlCRiUKL5gvJH-30">
          <mxGeometry y="144" width="160" height="30" as="geometry" />
        </mxCell>
        <mxCell id="VbPNYPBAlCRiUKL5gvJH-38" value="" style="endArrow=classic;html=1;rounded=0;entryX=0;entryY=0.25;entryDx=0;entryDy=0;exitX=1;exitY=0.517;exitDx=0;exitDy=0;exitPerimeter=0;" edge="1" parent="1" source="VbPNYPBAlCRiUKL5gvJH-4" target="VbPNYPBAlCRiUKL5gvJH-30">
          <mxGeometry width="50" height="50" relative="1" as="geometry">
            <mxPoint x="200" y="110" as="sourcePoint" />
            <mxPoint x="250" y="60" as="targetPoint" />
          </mxGeometry>
        </mxCell>
        <mxCell id="VbPNYPBAlCRiUKL5gvJH-39" value="Track" style="swimlane;whiteSpace=wrap;html=1;startSize=20;fillColor=#B0E3E6;" vertex="1" parent="1">
          <mxGeometry x="270" y="-170" width="160" height="190" as="geometry" />
        </mxCell>
        <mxCell id="VbPNYPBAlCRiUKL5gvJH-40" value="Track_ID   (PK)" style="text;align=left;verticalAlign=top;spacingLeft=4;spacingRight=4;overflow=hidden;rotatable=0;points=[[0,0.5],[1,0.5]];portConstraint=eastwest;fillColor=#F8CECC;strokeColor=#6c8ebf;" vertex="1" parent="VbPNYPBAlCRiUKL5gvJH-39">
          <mxGeometry y="20" width="160" height="26" as="geometry" />
        </mxCell>
        <mxCell id="VbPNYPBAlCRiUKL5gvJH-41" value="Branch_ID (FK)" style="text;align=left;verticalAlign=top;spacingLeft=4;spacingRight=4;overflow=hidden;rotatable=0;points=[[0,0.5],[1,0.5]];portConstraint=eastwest;fillColor=#FFF2CC;strokeColor=#b85450;" vertex="1" parent="VbPNYPBAlCRiUKL5gvJH-39">
          <mxGeometry y="46" width="160" height="26" as="geometry" />
        </mxCell>
        <mxCell id="VbPNYPBAlCRiUKL5gvJH-42" value="Track_Name" style="text;align=left;verticalAlign=top;spacingLeft=4;spacingRight=4;overflow=hidden;rotatable=0;points=[[0,0.5],[1,0.5]];portConstraint=eastwest;" vertex="1" parent="VbPNYPBAlCRiUKL5gvJH-39">
          <mxGeometry y="96" width="160" height="26" as="geometry" />
        </mxCell>
        <mxCell id="VbPNYPBAlCRiUKL5gvJH-43" value="TrackDuration" style="text;align=left;verticalAlign=top;spacingLeft=4;spacingRight=4;overflow=hidden;rotatable=0;points=[[0,0.5],[1,0.5]];portConstraint=eastwest;" vertex="1" parent="VbPNYPBAlCRiUKL5gvJH-39">
          <mxGeometry y="122" width="160" height="24" as="geometry" />
        </mxCell>
        <mxCell id="VbPNYPBAlCRiUKL5gvJH-45" value="Instructor_ID (FK)" style="text;align=left;verticalAlign=top;spacingLeft=4;spacingRight=4;overflow=hidden;rotatable=0;points=[[0,0.5],[1,0.5]];portConstraint=eastwest;fillColor=#FFF2CC;strokeColor=#b85450;" vertex="1" parent="VbPNYPBAlCRiUKL5gvJH-39">
          <mxGeometry y="72" width="160" height="24" as="geometry" />
        </mxCell>
        <mxCell id="VbPNYPBAlCRiUKL5gvJH-46" value="" style="endArrow=none;html=1;rounded=0;" edge="1" parent="1">
          <mxGeometry width="50" height="50" relative="1" as="geometry">
            <mxPoint x="240" y="-90" as="sourcePoint" />
            <mxPoint x="270" y="-90" as="targetPoint" />
          </mxGeometry>
        </mxCell>
        <mxCell id="VbPNYPBAlCRiUKL5gvJH-47" value="" style="endArrow=none;html=1;rounded=0;" edge="1" parent="1">
          <mxGeometry width="50" height="50" relative="1" as="geometry">
            <mxPoint x="240" y="30" as="sourcePoint" />
            <mxPoint x="240" y="-90" as="targetPoint" />
          </mxGeometry>
        </mxCell>
        <mxCell id="VbPNYPBAlCRiUKL5gvJH-49" value="" style="endArrow=classic;html=1;rounded=0;" edge="1" parent="1">
          <mxGeometry width="50" height="50" relative="1" as="geometry">
            <mxPoint x="240" y="30" as="sourcePoint" />
            <mxPoint x="200" y="30" as="targetPoint" />
          </mxGeometry>
        </mxCell>
        <mxCell id="VbPNYPBAlCRiUKL5gvJH-50" value="" style="endArrow=none;html=1;rounded=0;" edge="1" parent="1">
          <mxGeometry width="50" height="50" relative="1" as="geometry">
            <mxPoint x="430" y="-140" as="sourcePoint" />
            <mxPoint x="480" y="-140" as="targetPoint" />
          </mxGeometry>
        </mxCell>
        <mxCell id="VbPNYPBAlCRiUKL5gvJH-51" value="" style="endArrow=none;html=1;rounded=0;" edge="1" parent="1">
          <mxGeometry width="50" height="50" relative="1" as="geometry">
            <mxPoint x="480" y="90" as="sourcePoint" />
            <mxPoint x="480" y="-140" as="targetPoint" />
          </mxGeometry>
        </mxCell>
        <mxCell id="VbPNYPBAlCRiUKL5gvJH-53" value="" style="endArrow=classic;html=1;rounded=0;entryX=1;entryY=0.5;entryDx=0;entryDy=0;" edge="1" parent="1" target="VbPNYPBAlCRiUKL5gvJH-31">
          <mxGeometry width="50" height="50" relative="1" as="geometry">
            <mxPoint x="480" y="90" as="sourcePoint" />
            <mxPoint x="430" y="90" as="targetPoint" />
          </mxGeometry>
        </mxCell>
        <mxCell id="VbPNYPBAlCRiUKL5gvJH-54" value="Course" style="swimlane;whiteSpace=wrap;html=1;fillColor=#B0E3E6;" vertex="1" parent="1">
          <mxGeometry x="520" y="76" width="170" height="138" as="geometry" />
        </mxCell>
        <mxCell id="VbPNYPBAlCRiUKL5gvJH-55" value="Course_ID (PK)" style="text;align=left;verticalAlign=top;spacingLeft=4;spacingRight=4;overflow=hidden;rotatable=0;points=[[0,0.5],[1,0.5]];portConstraint=eastwest;fillColor=#F8CECC;strokeColor=#6c8ebf;" vertex="1" parent="VbPNYPBAlCRiUKL5gvJH-54">
          <mxGeometry y="18" width="170" height="26" as="geometry" />
        </mxCell>
        <mxCell id="VbPNYPBAlCRiUKL5gvJH-56" value="CourseName" style="text;align=left;verticalAlign=top;spacingLeft=4;spacingRight=4;overflow=hidden;rotatable=0;points=[[0,0.5],[1,0.5]];portConstraint=eastwest;" vertex="1" parent="VbPNYPBAlCRiUKL5gvJH-54">
          <mxGeometry y="70" width="160" height="14" as="geometry" />
        </mxCell>
        <mxCell id="VbPNYPBAlCRiUKL5gvJH-57" value="CourseStatus" style="text;align=left;verticalAlign=top;spacingLeft=4;spacingRight=4;overflow=hidden;rotatable=0;points=[[0,0.5],[1,0.5]];portConstraint=eastwest;" vertex="1" parent="VbPNYPBAlCRiUKL5gvJH-54">
          <mxGeometry y="98" width="160" height="16" as="geometry" />
        </mxCell>
        <mxCell id="VbPNYPBAlCRiUKL5gvJH-58" value="CourseDuration" style="text;align=left;verticalAlign=top;spacingLeft=4;spacingRight=4;overflow=hidden;rotatable=0;points=[[0,0.5],[1,0.5]];portConstraint=eastwest;" vertex="1" parent="VbPNYPBAlCRiUKL5gvJH-54">
          <mxGeometry y="84" width="160" height="22" as="geometry" />
        </mxCell>
        <mxCell id="VbPNYPBAlCRiUKL5gvJH-60" value="Instructor_ID (FK)" style="text;align=left;verticalAlign=top;spacingLeft=4;spacingRight=4;overflow=hidden;rotatable=0;points=[[0,0.5],[1,0.5]];portConstraint=eastwest;fillColor=#FFF2CC;strokeColor=#b85450;" vertex="1" parent="VbPNYPBAlCRiUKL5gvJH-54">
          <mxGeometry y="44" width="170" height="26" as="geometry" />
        </mxCell>
        <mxCell id="VbPNYPBAlCRiUKL5gvJH-61" value="Evaluation" style="text;align=left;verticalAlign=top;spacingLeft=4;spacingRight=4;overflow=hidden;rotatable=0;points=[[0,0.5],[1,0.5]];portConstraint=eastwest;" vertex="1" parent="VbPNYPBAlCRiUKL5gvJH-54">
          <mxGeometry y="114" width="160" height="16" as="geometry" />
        </mxCell>
        <mxCell id="VbPNYPBAlCRiUKL5gvJH-62" value="Track Contains Courses" style="swimlane;whiteSpace=wrap;html=1;fillColor=#B0E3E6;" vertex="1" parent="1">
          <mxGeometry x="530" y="-70" width="160" height="90" as="geometry" />
        </mxCell>
        <mxCell id="VbPNYPBAlCRiUKL5gvJH-63" value="Track_ID (FK)" style="text;align=left;verticalAlign=top;spacingLeft=4;spacingRight=4;overflow=hidden;rotatable=0;points=[[0,0.5],[1,0.5]];portConstraint=eastwest;fillColor=#FFF2CC;strokeColor=#9673a6;" vertex="1" parent="VbPNYPBAlCRiUKL5gvJH-62">
          <mxGeometry y="20" width="160" height="35" as="geometry" />
        </mxCell>
        <mxCell id="VbPNYPBAlCRiUKL5gvJH-64" value="Course_ID (FK)  (composite)" style="text;align=left;verticalAlign=top;spacingLeft=4;spacingRight=4;overflow=hidden;rotatable=0;points=[[0,0.5],[1,0.5]];portConstraint=eastwest;fillColor=#FFF2CC;strokeColor=#9673a6;" vertex="1" parent="VbPNYPBAlCRiUKL5gvJH-62">
          <mxGeometry y="55" width="160" height="35" as="geometry" />
        </mxCell>
        <mxCell id="VbPNYPBAlCRiUKL5gvJH-65" value="" style="endArrow=none;html=1;rounded=0;" edge="1" parent="1">
          <mxGeometry width="50" height="50" relative="1" as="geometry">
            <mxPoint x="450" y="-40" as="sourcePoint" />
            <mxPoint x="530" y="-40" as="targetPoint" />
          </mxGeometry>
        </mxCell>
        <mxCell id="VbPNYPBAlCRiUKL5gvJH-66" value="" style="endArrow=none;html=1;rounded=0;" edge="1" parent="1">
          <mxGeometry width="50" height="50" relative="1" as="geometry">
            <mxPoint x="450" y="-40" as="sourcePoint" />
            <mxPoint x="450" y="-130" as="targetPoint" />
          </mxGeometry>
        </mxCell>
        <mxCell id="VbPNYPBAlCRiUKL5gvJH-67" value="" style="endArrow=classic;html=1;rounded=0;" edge="1" parent="1">
          <mxGeometry width="50" height="50" relative="1" as="geometry">
            <mxPoint x="450" y="-130" as="sourcePoint" />
            <mxPoint x="430" y="-130" as="targetPoint" />
          </mxGeometry>
        </mxCell>
        <mxCell id="VbPNYPBAlCRiUKL5gvJH-68" value="" style="endArrow=none;html=1;rounded=0;" edge="1" parent="1">
          <mxGeometry width="50" height="50" relative="1" as="geometry">
            <mxPoint x="690" y="10" as="sourcePoint" />
            <mxPoint x="750" y="10" as="targetPoint" />
          </mxGeometry>
        </mxCell>
        <mxCell id="VbPNYPBAlCRiUKL5gvJH-69" value="" style="endArrow=none;html=1;rounded=0;" edge="1" parent="1">
          <mxGeometry width="50" height="50" relative="1" as="geometry">
            <mxPoint x="750" y="100" as="sourcePoint" />
            <mxPoint x="750" y="10" as="targetPoint" />
          </mxGeometry>
        </mxCell>
        <mxCell id="VbPNYPBAlCRiUKL5gvJH-71" value="" style="endArrow=classic;html=1;rounded=0;entryX=1.013;entryY=0.203;entryDx=0;entryDy=0;entryPerimeter=0;" edge="1" parent="1" target="VbPNYPBAlCRiUKL5gvJH-55">
          <mxGeometry width="50" height="50" relative="1" as="geometry">
            <mxPoint x="750" y="100" as="sourcePoint" />
            <mxPoint x="800" y="50" as="targetPoint" />
          </mxGeometry>
        </mxCell>
        <mxCell id="VbPNYPBAlCRiUKL5gvJH-72" value="Topics" style="swimlane;whiteSpace=wrap;html=1;startSize=23;fillColor=#B0E3E6;" vertex="1" parent="1">
          <mxGeometry x="242.5" y="260" width="205" height="100" as="geometry" />
        </mxCell>
        <mxCell id="VbPNYPBAlCRiUKL5gvJH-73" value="Topic_ID (PK)" style="text;align=left;verticalAlign=top;spacingLeft=4;spacingRight=4;overflow=hidden;rotatable=0;points=[[0,0.5],[1,0.5]];portConstraint=eastwest;fillColor=#F8CECC;strokeColor=#6c8ebf;" vertex="1" parent="VbPNYPBAlCRiUKL5gvJH-72">
          <mxGeometry y="20" width="205" height="26" as="geometry" />
        </mxCell>
        <mxCell id="VbPNYPBAlCRiUKL5gvJH-74" value="Topic_Name" style="text;align=left;verticalAlign=top;spacingLeft=4;spacingRight=4;overflow=hidden;rotatable=0;points=[[0,0.5],[1,0.5]];portConstraint=eastwest;" vertex="1" parent="VbPNYPBAlCRiUKL5gvJH-72">
          <mxGeometry y="72" width="205" height="26" as="geometry" />
        </mxCell>
        <mxCell id="VbPNYPBAlCRiUKL5gvJH-75" value="Course_ID (FK)" style="text;align=left;verticalAlign=top;spacingLeft=4;spacingRight=4;overflow=hidden;rotatable=0;points=[[0,0.5],[1,0.5]];portConstraint=eastwest;fillColor=#FFF2CC;strokeColor=#b85450;" vertex="1" parent="VbPNYPBAlCRiUKL5gvJH-72">
          <mxGeometry y="46" width="205" height="26" as="geometry" />
        </mxCell>
        <mxCell id="Mrcp-kGoiIC98MKb-wke-8" value="" style="endArrow=none;html=1;rounded=0;" edge="1" parent="VbPNYPBAlCRiUKL5gvJH-72">
          <mxGeometry width="50" height="50" relative="1" as="geometry">
            <mxPoint x="247.5" y="150" as="sourcePoint" />
            <mxPoint x="247.5" y="40" as="targetPoint" />
          </mxGeometry>
        </mxCell>
        <mxCell id="VbPNYPBAlCRiUKL5gvJH-76" value="" style="endArrow=none;html=1;rounded=0;" edge="1" parent="1">
          <mxGeometry width="50" height="50" relative="1" as="geometry">
            <mxPoint x="450" y="290" as="sourcePoint" />
            <mxPoint x="490" y="290" as="targetPoint" />
          </mxGeometry>
        </mxCell>
        <mxCell id="VbPNYPBAlCRiUKL5gvJH-77" value="" style="endArrow=none;html=1;rounded=0;" edge="1" parent="1">
          <mxGeometry width="50" height="50" relative="1" as="geometry">
            <mxPoint x="490" y="290" as="sourcePoint" />
            <mxPoint x="490" y="110" as="targetPoint" />
          </mxGeometry>
        </mxCell>
        <mxCell id="VbPNYPBAlCRiUKL5gvJH-79" value="" style="endArrow=classic;html=1;rounded=0;" edge="1" parent="1">
          <mxGeometry width="50" height="50" relative="1" as="geometry">
            <mxPoint x="490" y="110" as="sourcePoint" />
            <mxPoint x="520" y="110" as="targetPoint" />
          </mxGeometry>
        </mxCell>
        <mxCell id="VbPNYPBAlCRiUKL5gvJH-99" value="Students" style="swimlane;whiteSpace=wrap;html=1;fillColor=#B0E3E6;" vertex="1" parent="1">
          <mxGeometry x="830" y="-150" width="200" height="447" as="geometry" />
        </mxCell>
        <mxCell id="VbPNYPBAlCRiUKL5gvJH-100" value="S_ID (PK)" style="text;align=left;verticalAlign=top;spacingLeft=4;spacingRight=4;overflow=hidden;rotatable=0;points=[[0,0.5],[1,0.5]];portConstraint=eastwest;fillColor=#F8CECC;strokeColor=#6c8ebf;" vertex="1" parent="VbPNYPBAlCRiUKL5gvJH-99">
          <mxGeometry y="20" width="200" height="60" as="geometry" />
        </mxCell>
        <mxCell id="VbPNYPBAlCRiUKL5gvJH-101" value="Branch_ID (FK)" style="text;align=left;verticalAlign=top;spacingLeft=4;spacingRight=4;overflow=hidden;rotatable=0;points=[[0,0.5],[1,0.5]];portConstraint=eastwest;fillColor=#FFF2CC;strokeColor=#b85450;" vertex="1" parent="VbPNYPBAlCRiUKL5gvJH-99">
          <mxGeometry y="80" width="200" height="25" as="geometry" />
        </mxCell>
        <mxCell id="VbPNYPBAlCRiUKL5gvJH-102" value="Lname" style="text;align=left;verticalAlign=top;spacingLeft=4;spacingRight=4;overflow=hidden;rotatable=0;points=[[0,0.5],[1,0.5]];portConstraint=eastwest;" vertex="1" parent="VbPNYPBAlCRiUKL5gvJH-99">
          <mxGeometry y="199" width="200" height="26" as="geometry" />
        </mxCell>
        <mxCell id="VbPNYPBAlCRiUKL5gvJH-103" value="Gender" style="text;align=left;verticalAlign=top;spacingLeft=4;spacingRight=4;overflow=hidden;rotatable=0;points=[[0,0.5],[1,0.5]];portConstraint=eastwest;" vertex="1" parent="VbPNYPBAlCRiUKL5gvJH-99">
          <mxGeometry y="251" width="200" height="26" as="geometry" />
        </mxCell>
        <mxCell id="VbPNYPBAlCRiUKL5gvJH-104" value="DOB" style="text;align=left;verticalAlign=top;spacingLeft=4;spacingRight=4;overflow=hidden;rotatable=0;points=[[0,0.5],[1,0.5]];portConstraint=eastwest;" vertex="1" parent="VbPNYPBAlCRiUKL5gvJH-99">
          <mxGeometry y="277" width="200" height="26" as="geometry" />
        </mxCell>
        <mxCell id="VbPNYPBAlCRiUKL5gvJH-107" value="#FreelanceJobs" style="text;align=left;verticalAlign=top;spacingLeft=4;spacingRight=4;overflow=hidden;rotatable=0;points=[[0,0.5],[1,0.5]];portConstraint=eastwest;" vertex="1" parent="VbPNYPBAlCRiUKL5gvJH-99">
          <mxGeometry y="310" width="200" height="26" as="geometry" />
        </mxCell>
        <mxCell id="VbPNYPBAlCRiUKL5gvJH-108" value="ZipCode (FK)" style="text;align=left;verticalAlign=top;spacingLeft=4;spacingRight=4;overflow=hidden;rotatable=0;points=[[0,0.5],[1,0.5]];portConstraint=eastwest;fillColor=#FFF2CC;strokeColor=#b85450;" vertex="1" parent="VbPNYPBAlCRiUKL5gvJH-99">
          <mxGeometry y="105" width="200" height="25" as="geometry" />
        </mxCell>
        <mxCell id="VbPNYPBAlCRiUKL5gvJH-109" value="Fcode (FK)" style="text;align=left;verticalAlign=top;spacingLeft=4;spacingRight=4;overflow=hidden;rotatable=0;points=[[0,0.5],[1,0.5]];portConstraint=eastwest;fillColor=#FFF2CC;strokeColor=#b85450;" vertex="1" parent="VbPNYPBAlCRiUKL5gvJH-99">
          <mxGeometry y="130" width="200" height="30" as="geometry" />
        </mxCell>
        <mxCell id="VbPNYPBAlCRiUKL5gvJH-110" value="Fname" style="text;align=left;verticalAlign=top;spacingLeft=4;spacingRight=4;overflow=hidden;rotatable=0;points=[[0,0.5],[1,0.5]];portConstraint=eastwest;" vertex="1" parent="VbPNYPBAlCRiUKL5gvJH-99">
          <mxGeometry y="183" width="200" height="26" as="geometry" />
        </mxCell>
        <mxCell id="VbPNYPBAlCRiUKL5gvJH-111" value="Faculty_graduationYear" style="text;align=left;verticalAlign=top;spacingLeft=4;spacingRight=4;overflow=hidden;rotatable=0;points=[[0,0.5],[1,0.5]];portConstraint=eastwest;" vertex="1" parent="VbPNYPBAlCRiUKL5gvJH-99">
          <mxGeometry y="336" width="200" height="26" as="geometry" />
        </mxCell>
        <mxCell id="VbPNYPBAlCRiUKL5gvJH-112" value="Email" style="text;align=left;verticalAlign=top;spacingLeft=4;spacingRight=4;overflow=hidden;rotatable=0;points=[[0,0.5],[1,0.5]];portConstraint=eastwest;" vertex="1" parent="VbPNYPBAlCRiUKL5gvJH-99">
          <mxGeometry y="225" width="200" height="26" as="geometry" />
        </mxCell>
        <mxCell id="VbPNYPBAlCRiUKL5gvJH-114" value="FacebookURL" style="text;align=left;verticalAlign=top;spacingLeft=4;spacingRight=4;overflow=hidden;rotatable=0;points=[[0,0.5],[1,0.5]];portConstraint=eastwest;" vertex="1" parent="VbPNYPBAlCRiUKL5gvJH-99">
          <mxGeometry y="362" width="200" height="26" as="geometry" />
        </mxCell>
        <mxCell id="VbPNYPBAlCRiUKL5gvJH-116" value="Track_ID (FK)" style="text;align=left;verticalAlign=top;spacingLeft=4;spacingRight=4;overflow=hidden;rotatable=0;points=[[0,0.5],[1,0.5]];portConstraint=eastwest;fillColor=#FFF2CC;strokeColor=#b85450;" vertex="1" parent="VbPNYPBAlCRiUKL5gvJH-99">
          <mxGeometry y="157" width="200" height="26" as="geometry" />
        </mxCell>
        <mxCell id="VbPNYPBAlCRiUKL5gvJH-178" value="" style="endArrow=classic;html=1;rounded=0;" edge="1" parent="VbPNYPBAlCRiUKL5gvJH-99">
          <mxGeometry width="50" height="50" relative="1" as="geometry">
            <mxPoint x="-20" y="30" as="sourcePoint" />
            <mxPoint y="30" as="targetPoint" />
          </mxGeometry>
        </mxCell>
        <mxCell id="-j6PVzEXcQH21HLE1_TG-2" value="St_Password" style="text;align=left;verticalAlign=top;spacingLeft=4;spacingRight=4;overflow=hidden;rotatable=0;points=[[0,0.5],[1,0.5]];portConstraint=eastwest;" vertex="1" parent="VbPNYPBAlCRiUKL5gvJH-99">
          <mxGeometry y="388" width="200" height="26" as="geometry" />
        </mxCell>
        <mxCell id="VbPNYPBAlCRiUKL5gvJH-131" value="Student_Certificates" style="swimlane;whiteSpace=wrap;html=1;startSize=23;fillColor=#B0E3E6;" vertex="1" parent="1">
          <mxGeometry x="1100" y="-150" width="210" height="132" as="geometry" />
        </mxCell>
        <mxCell id="VbPNYPBAlCRiUKL5gvJH-132" value="CertificateProviderName" style="text;align=left;verticalAlign=top;spacingLeft=4;spacingRight=4;overflow=hidden;rotatable=0;points=[[0,0.5],[1,0.5]];portConstraint=eastwest;" vertex="1" parent="VbPNYPBAlCRiUKL5gvJH-131">
          <mxGeometry y="72" width="210" height="26" as="geometry" />
        </mxCell>
        <mxCell id="VbPNYPBAlCRiUKL5gvJH-133" value="Certificate_IssueDate" style="text;align=left;verticalAlign=top;spacingLeft=4;spacingRight=4;overflow=hidden;rotatable=0;points=[[0,0.5],[1,0.5]];portConstraint=eastwest;" vertex="1" parent="VbPNYPBAlCRiUKL5gvJH-131">
          <mxGeometry x="2.5" y="98" width="205" height="26" as="geometry" />
        </mxCell>
        <mxCell id="VbPNYPBAlCRiUKL5gvJH-134" value="Certificate_ID (PK)" style="text;align=left;verticalAlign=top;spacingLeft=4;spacingRight=4;overflow=hidden;rotatable=0;points=[[0,0.5],[1,0.5]];portConstraint=eastwest;fillColor=#F8CECC;strokeColor=#6c8ebf;" vertex="1" parent="VbPNYPBAlCRiUKL5gvJH-131">
          <mxGeometry y="22" width="210" height="26" as="geometry" />
        </mxCell>
        <mxCell id="VbPNYPBAlCRiUKL5gvJH-135" value="Student_ID (FK)" style="text;align=left;verticalAlign=top;spacingLeft=4;spacingRight=4;overflow=hidden;rotatable=0;points=[[0,0.5],[1,0.5]];portConstraint=eastwest;fillColor=#FFF2CC;strokeColor=#b85450;" vertex="1" parent="VbPNYPBAlCRiUKL5gvJH-131">
          <mxGeometry y="48" width="210" height="22" as="geometry" />
        </mxCell>
        <mxCell id="VbPNYPBAlCRiUKL5gvJH-136" value="" style="endArrow=classic;html=1;rounded=0;" edge="1" parent="VbPNYPBAlCRiUKL5gvJH-131">
          <mxGeometry width="50" height="50" relative="1" as="geometry">
            <mxPoint y="60" as="sourcePoint" />
            <mxPoint x="-70" y="60" as="targetPoint" />
          </mxGeometry>
        </mxCell>
        <mxCell id="VbPNYPBAlCRiUKL5gvJH-138" value="student_address" style="swimlane;whiteSpace=wrap;html=1;fillColor=#B0E3E6;" vertex="1" parent="1">
          <mxGeometry x="1120" width="200" height="120" as="geometry" />
        </mxCell>
        <mxCell id="VbPNYPBAlCRiUKL5gvJH-139" value="City" style="text;html=1;align=left;verticalAlign=middle;resizable=0;points=[];autosize=1;strokeColor=none;fillColor=none;" vertex="1" parent="VbPNYPBAlCRiUKL5gvJH-138">
          <mxGeometry y="52" width="160" height="30" as="geometry" />
        </mxCell>
        <mxCell id="VbPNYPBAlCRiUKL5gvJH-140" value="Street" style="text;align=left;verticalAlign=top;spacingLeft=4;spacingRight=4;overflow=hidden;rotatable=0;points=[[0,0.5],[1,0.5]];portConstraint=eastwest;rounded=0;shadow=0;html=0;" vertex="1" parent="VbPNYPBAlCRiUKL5gvJH-138">
          <mxGeometry y="82" width="200" height="28" as="geometry" />
        </mxCell>
        <mxCell id="VbPNYPBAlCRiUKL5gvJH-141" value="ZipCode (PK)" style="text;align=left;verticalAlign=top;spacingLeft=4;spacingRight=4;overflow=hidden;rotatable=0;points=[[0,0.5],[1,0.5]];portConstraint=eastwest;fillColor=#F8CECC;strokeColor=#6c8ebf;" vertex="1" parent="VbPNYPBAlCRiUKL5gvJH-138">
          <mxGeometry y="20" width="200" height="32" as="geometry" />
        </mxCell>
        <mxCell id="VbPNYPBAlCRiUKL5gvJH-142" value="" style="endArrow=none;html=1;rounded=0;" edge="1" parent="1">
          <mxGeometry width="50" height="50" relative="1" as="geometry">
            <mxPoint x="1080" y="30" as="sourcePoint" />
            <mxPoint x="1120" y="30" as="targetPoint" />
          </mxGeometry>
        </mxCell>
        <mxCell id="VbPNYPBAlCRiUKL5gvJH-143" value="" style="endArrow=none;html=1;rounded=0;" edge="1" parent="1">
          <mxGeometry width="50" height="50" relative="1" as="geometry">
            <mxPoint x="1080" y="30" as="sourcePoint" />
            <mxPoint x="1080" y="-40" as="targetPoint" />
          </mxGeometry>
        </mxCell>
        <mxCell id="VbPNYPBAlCRiUKL5gvJH-144" value="" style="endArrow=classic;html=1;rounded=0;" edge="1" parent="1">
          <mxGeometry width="50" height="50" relative="1" as="geometry">
            <mxPoint x="1080" y="-40" as="sourcePoint" />
            <mxPoint x="1030" y="-40" as="targetPoint" />
          </mxGeometry>
        </mxCell>
        <mxCell id="VbPNYPBAlCRiUKL5gvJH-145" value="StudentPhone" style="swimlane;whiteSpace=wrap;html=1;fillColor=#B0E3E6;" vertex="1" parent="1">
          <mxGeometry x="1100" y="-250" width="200" height="68" as="geometry" />
        </mxCell>
        <mxCell id="VbPNYPBAlCRiUKL5gvJH-146" value="S_ID (FK)" style="text;align=left;verticalAlign=top;spacingLeft=4;spacingRight=4;overflow=hidden;rotatable=0;points=[[0,0.5],[1,0.5]];portConstraint=eastwest;fillColor=#FFF2CC;strokeColor=#9673a6;" vertex="1" parent="VbPNYPBAlCRiUKL5gvJH-145">
          <mxGeometry y="26" width="200" height="26" as="geometry" />
        </mxCell>
        <mxCell id="VbPNYPBAlCRiUKL5gvJH-147" value="Phone (Composite)" style="text;align=left;verticalAlign=top;spacingLeft=4;spacingRight=4;overflow=hidden;rotatable=0;points=[[0,0.5],[1,0.5]];portConstraint=eastwest;fillColor=#FFF2CC;strokeColor=#9673a6;" vertex="1" parent="VbPNYPBAlCRiUKL5gvJH-145">
          <mxGeometry y="52" width="200" height="26" as="geometry" />
        </mxCell>
        <mxCell id="VbPNYPBAlCRiUKL5gvJH-148" value="" style="endArrow=none;html=1;rounded=0;" edge="1" parent="1">
          <mxGeometry width="50" height="50" relative="1" as="geometry">
            <mxPoint x="1070" y="-210" as="sourcePoint" />
            <mxPoint x="1100" y="-210" as="targetPoint" />
          </mxGeometry>
        </mxCell>
        <mxCell id="VbPNYPBAlCRiUKL5gvJH-149" value="" style="endArrow=none;html=1;rounded=0;" edge="1" parent="1">
          <mxGeometry width="50" height="50" relative="1" as="geometry">
            <mxPoint x="1070" y="-120" as="sourcePoint" />
            <mxPoint x="1070" y="-210" as="targetPoint" />
          </mxGeometry>
        </mxCell>
        <mxCell id="VbPNYPBAlCRiUKL5gvJH-150" value="" style="endArrow=classic;html=1;rounded=0;" edge="1" parent="1">
          <mxGeometry width="50" height="50" relative="1" as="geometry">
            <mxPoint x="1070" y="-120" as="sourcePoint" />
            <mxPoint x="1030" y="-120" as="targetPoint" />
          </mxGeometry>
        </mxCell>
        <mxCell id="VbPNYPBAlCRiUKL5gvJH-151" value="Graduate_FailReasons" style="swimlane;whiteSpace=wrap;html=1;fillColor=#B0E3E6;" vertex="1" parent="1">
          <mxGeometry x="180" y="-760" width="200" height="74" as="geometry" />
        </mxCell>
        <mxCell id="VbPNYPBAlCRiUKL5gvJH-152" value="Graduate_ID (FK)" style="text;align=left;verticalAlign=top;spacingLeft=4;spacingRight=4;overflow=hidden;rotatable=0;points=[[0,0.5],[1,0.5]];portConstraint=eastwest;fillColor=#FFF2CC;strokeColor=#9673a6;" vertex="1" parent="VbPNYPBAlCRiUKL5gvJH-151">
          <mxGeometry y="24" width="200" height="26" as="geometry" />
        </mxCell>
        <mxCell id="VbPNYPBAlCRiUKL5gvJH-153" value="FailReason (Composite)" style="text;align=left;verticalAlign=top;spacingLeft=4;spacingRight=4;overflow=hidden;rotatable=0;points=[[0,0.5],[1,0.5]];portConstraint=eastwest;fillColor=#FFF2CC;strokeColor=#9673a6;" vertex="1" parent="VbPNYPBAlCRiUKL5gvJH-151">
          <mxGeometry y="50" width="200" height="26" as="geometry" />
        </mxCell>
        <mxCell id="VbPNYPBAlCRiUKL5gvJH-160" value="Faculty" style="swimlane;whiteSpace=wrap;html=1;fillColor=#B0E3E6;" vertex="1" parent="1">
          <mxGeometry x="1120" y="138" width="200" height="76" as="geometry" />
        </mxCell>
        <mxCell id="VbPNYPBAlCRiUKL5gvJH-161" value="Fcode (PK)" style="text;align=left;verticalAlign=top;spacingLeft=4;spacingRight=4;overflow=hidden;rotatable=0;points=[[0,0.5],[1,0.5]];portConstraint=eastwest;fillColor=#F8CECC;strokeColor=#6c8ebf;" vertex="1" parent="VbPNYPBAlCRiUKL5gvJH-160">
          <mxGeometry y="22" width="200" height="26" as="geometry" />
        </mxCell>
        <mxCell id="VbPNYPBAlCRiUKL5gvJH-162" value="Fname" style="text;align=left;verticalAlign=top;spacingLeft=4;spacingRight=4;overflow=hidden;rotatable=0;points=[[0,0.5],[1,0.5]];portConstraint=eastwest;" vertex="1" parent="VbPNYPBAlCRiUKL5gvJH-160">
          <mxGeometry y="50" width="200" height="26" as="geometry" />
        </mxCell>
        <mxCell id="VbPNYPBAlCRiUKL5gvJH-163" value="" style="endArrow=none;html=1;rounded=0;" edge="1" parent="1">
          <mxGeometry width="50" height="50" relative="1" as="geometry">
            <mxPoint x="1060" y="170" as="sourcePoint" />
            <mxPoint x="1120" y="170" as="targetPoint" />
          </mxGeometry>
        </mxCell>
        <mxCell id="VbPNYPBAlCRiUKL5gvJH-164" value="" style="endArrow=none;html=1;rounded=0;" edge="1" parent="1">
          <mxGeometry width="50" height="50" relative="1" as="geometry">
            <mxPoint x="1060" y="170" as="sourcePoint" />
            <mxPoint x="1060" as="targetPoint" />
          </mxGeometry>
        </mxCell>
        <mxCell id="VbPNYPBAlCRiUKL5gvJH-167" value="" style="endArrow=classic;html=1;rounded=0;" edge="1" parent="1">
          <mxGeometry width="50" height="50" relative="1" as="geometry">
            <mxPoint x="1060" as="sourcePoint" />
            <mxPoint x="1030" as="targetPoint" />
          </mxGeometry>
        </mxCell>
        <mxCell id="VbPNYPBAlCRiUKL5gvJH-168" value="Student_enroll_in_Round" style="swimlane;whiteSpace=wrap;html=1;fillColor=#B0E3E6;" vertex="1" parent="1">
          <mxGeometry x="840" y="-270" width="190" height="80" as="geometry" />
        </mxCell>
        <mxCell id="VbPNYPBAlCRiUKL5gvJH-169" value="S_ID (FK),(PK)" style="text;align=left;verticalAlign=top;spacingLeft=4;spacingRight=4;overflow=hidden;rotatable=0;points=[[0,0.5],[1,0.5]];portConstraint=eastwest;fillColor=#F8CECC;strokeColor=#82b366;" vertex="1" parent="VbPNYPBAlCRiUKL5gvJH-168">
          <mxGeometry y="25" width="190" height="25" as="geometry" />
        </mxCell>
        <mxCell id="VbPNYPBAlCRiUKL5gvJH-170" value="Round_ID (FK)" style="text;align=left;verticalAlign=top;spacingLeft=4;spacingRight=4;overflow=hidden;rotatable=0;points=[[0,0.5],[1,0.5]];portConstraint=eastwest;fillColor=#FFF2CC;strokeColor=#b85450;" vertex="1" parent="VbPNYPBAlCRiUKL5gvJH-168">
          <mxGeometry x="-1" y="50" width="191" height="26" as="geometry" />
        </mxCell>
        <mxCell id="VbPNYPBAlCRiUKL5gvJH-171" value="Round" style="swimlane;whiteSpace=wrap;html=1;startSize=33;fillColor=#B0E3E6;" vertex="1" parent="1">
          <mxGeometry x="1097.5" y="-440" width="205" height="73" as="geometry" />
        </mxCell>
        <mxCell id="VbPNYPBAlCRiUKL5gvJH-172" value="Round_ID (PK)" style="text;align=left;verticalAlign=top;spacingLeft=4;spacingRight=4;overflow=hidden;rotatable=0;points=[[0,0.5],[1,0.5]];portConstraint=eastwest;fillColor=#F8CECC;strokeColor=#6c8ebf;" vertex="1" parent="VbPNYPBAlCRiUKL5gvJH-171">
          <mxGeometry y="23" width="205" height="26" as="geometry" />
        </mxCell>
        <mxCell id="VbPNYPBAlCRiUKL5gvJH-173" value="Round_No" style="text;align=left;verticalAlign=top;spacingLeft=4;spacingRight=4;overflow=hidden;rotatable=0;points=[[0,0.5],[1,0.5]];portConstraint=eastwest;" vertex="1" parent="VbPNYPBAlCRiUKL5gvJH-171">
          <mxGeometry y="49" width="205" height="26" as="geometry" />
        </mxCell>
        <mxCell id="VbPNYPBAlCRiUKL5gvJH-176" value="" style="endArrow=none;html=1;rounded=0;" edge="1" parent="1">
          <mxGeometry width="50" height="50" relative="1" as="geometry">
            <mxPoint x="810" y="-240" as="sourcePoint" />
            <mxPoint x="840" y="-240" as="targetPoint" />
          </mxGeometry>
        </mxCell>
        <mxCell id="VbPNYPBAlCRiUKL5gvJH-177" value="" style="endArrow=none;html=1;rounded=0;" edge="1" parent="1">
          <mxGeometry width="50" height="50" relative="1" as="geometry">
            <mxPoint x="810" y="-120" as="sourcePoint" />
            <mxPoint x="810" y="-240" as="targetPoint" />
          </mxGeometry>
        </mxCell>
        <mxCell id="VbPNYPBAlCRiUKL5gvJH-179" value="" style="endArrow=none;html=1;rounded=0;" edge="1" parent="1">
          <mxGeometry width="50" height="50" relative="1" as="geometry">
            <mxPoint x="1030" y="-200" as="sourcePoint" />
            <mxPoint x="1050" y="-200" as="targetPoint" />
          </mxGeometry>
        </mxCell>
        <mxCell id="VbPNYPBAlCRiUKL5gvJH-180" value="" style="endArrow=none;html=1;rounded=0;" edge="1" parent="1">
          <mxGeometry width="50" height="50" relative="1" as="geometry">
            <mxPoint x="1050" y="-200" as="sourcePoint" />
            <mxPoint x="1050" y="-400" as="targetPoint" />
          </mxGeometry>
        </mxCell>
        <mxCell id="VbPNYPBAlCRiUKL5gvJH-181" value="" style="endArrow=classic;html=1;rounded=0;" edge="1" parent="1">
          <mxGeometry width="50" height="50" relative="1" as="geometry">
            <mxPoint x="1050" y="-400" as="sourcePoint" />
            <mxPoint x="1100" y="-400" as="targetPoint" />
          </mxGeometry>
        </mxCell>
        <mxCell id="VbPNYPBAlCRiUKL5gvJH-182" value="Student_enroll_in_Intake" style="swimlane;whiteSpace=wrap;html=1;startSize=21;fillColor=#B0E3E6;" vertex="1" parent="1">
          <mxGeometry x="810" y="-400" width="180" height="70" as="geometry" />
        </mxCell>
        <mxCell id="VbPNYPBAlCRiUKL5gvJH-183" value="S_ID (FK),(PK)" style="text;align=left;verticalAlign=top;spacingLeft=4;spacingRight=4;overflow=hidden;rotatable=0;points=[[0,0.5],[1,0.5]];portConstraint=eastwest;fillColor=#F8CECC;strokeColor=#82b366;" vertex="1" parent="VbPNYPBAlCRiUKL5gvJH-182">
          <mxGeometry y="18" width="180" height="25" as="geometry" />
        </mxCell>
        <mxCell id="VbPNYPBAlCRiUKL5gvJH-184" value="Intake_ID (FK)" style="text;align=left;verticalAlign=top;spacingLeft=4;spacingRight=4;overflow=hidden;rotatable=0;points=[[0,0.5],[1,0.5]];portConstraint=eastwest;fillColor=#FFF2CC;strokeColor=#b85450;" vertex="1" parent="VbPNYPBAlCRiUKL5gvJH-182">
          <mxGeometry y="44" width="180" height="26" as="geometry" />
        </mxCell>
        <mxCell id="VbPNYPBAlCRiUKL5gvJH-185" value="" style="endArrow=none;html=1;rounded=0;" edge="1" parent="1">
          <mxGeometry width="50" height="50" relative="1" as="geometry">
            <mxPoint x="770" y="-370" as="sourcePoint" />
            <mxPoint x="810" y="-370" as="targetPoint" />
          </mxGeometry>
        </mxCell>
        <mxCell id="VbPNYPBAlCRiUKL5gvJH-186" value="" style="endArrow=none;html=1;rounded=0;" edge="1" parent="1">
          <mxGeometry width="50" height="50" relative="1" as="geometry">
            <mxPoint x="770" y="-110" as="sourcePoint" />
            <mxPoint x="770" y="-370" as="targetPoint" />
          </mxGeometry>
        </mxCell>
        <mxCell id="VbPNYPBAlCRiUKL5gvJH-187" value="" style="endArrow=classic;html=1;rounded=0;" edge="1" parent="1">
          <mxGeometry width="50" height="50" relative="1" as="geometry">
            <mxPoint x="770" y="-110" as="sourcePoint" />
            <mxPoint x="830" y="-110" as="targetPoint" />
          </mxGeometry>
        </mxCell>
        <mxCell id="VbPNYPBAlCRiUKL5gvJH-188" value="Intake" style="swimlane;whiteSpace=wrap;html=1;fillColor=#B0E3E6;" vertex="1" parent="1">
          <mxGeometry x="1097.5" y="-540" width="205" height="82" as="geometry" />
        </mxCell>
        <mxCell id="VbPNYPBAlCRiUKL5gvJH-189" value="Intake_ID (PK)" style="text;align=left;verticalAlign=top;spacingLeft=4;spacingRight=4;overflow=hidden;rotatable=0;points=[[0,0.5],[1,0.5]];portConstraint=eastwest;fillColor=#F8CECC;strokeColor=#6c8ebf;" vertex="1" parent="VbPNYPBAlCRiUKL5gvJH-188">
          <mxGeometry y="22" width="205" height="26" as="geometry" />
        </mxCell>
        <mxCell id="VbPNYPBAlCRiUKL5gvJH-190" value="Intake_No" style="text;align=left;verticalAlign=top;spacingLeft=4;spacingRight=4;overflow=hidden;rotatable=0;points=[[0,0.5],[1,0.5]];portConstraint=eastwest;" vertex="1" parent="VbPNYPBAlCRiUKL5gvJH-188">
          <mxGeometry y="50" width="205" height="24" as="geometry" />
        </mxCell>
        <mxCell id="VbPNYPBAlCRiUKL5gvJH-191" value="" style="endArrow=none;html=1;rounded=0;" edge="1" parent="1">
          <mxGeometry width="50" height="50" relative="1" as="geometry">
            <mxPoint x="990" y="-340" as="sourcePoint" />
            <mxPoint x="1040" y="-340" as="targetPoint" />
          </mxGeometry>
        </mxCell>
        <mxCell id="VbPNYPBAlCRiUKL5gvJH-192" value="" style="endArrow=none;html=1;rounded=0;" edge="1" parent="1">
          <mxGeometry width="50" height="50" relative="1" as="geometry">
            <mxPoint x="1040" y="-340" as="sourcePoint" />
            <mxPoint x="1040" y="-510" as="targetPoint" />
          </mxGeometry>
        </mxCell>
        <mxCell id="VbPNYPBAlCRiUKL5gvJH-194" value="" style="endArrow=classic;html=1;rounded=0;entryX=-0.002;entryY=0.259;entryDx=0;entryDy=0;entryPerimeter=0;" edge="1" parent="1" target="VbPNYPBAlCRiUKL5gvJH-189">
          <mxGeometry width="50" height="50" relative="1" as="geometry">
            <mxPoint x="1040" y="-510" as="sourcePoint" />
            <mxPoint x="1090" y="-560" as="targetPoint" />
          </mxGeometry>
        </mxCell>
        <mxCell id="VbPNYPBAlCRiUKL5gvJH-195" value="Graduates" style="swimlane;whiteSpace=wrap;html=1;fillColor=#B0E3E6;startSize=23;" vertex="1" parent="1">
          <mxGeometry x="505" y="-690" width="240" height="410" as="geometry" />
        </mxCell>
        <mxCell id="VbPNYPBAlCRiUKL5gvJH-196" value="Graduate_ID (PK)" style="text;align=left;verticalAlign=top;spacingLeft=4;spacingRight=4;overflow=hidden;rotatable=0;points=[[0,0.5],[1,0.5]];portConstraint=eastwest;fillColor=#F8CECC;strokeColor=#6c8ebf;" vertex="1" parent="VbPNYPBAlCRiUKL5gvJH-195">
          <mxGeometry y="20" width="240" height="26" as="geometry" />
        </mxCell>
        <mxCell id="VbPNYPBAlCRiUKL5gvJH-197" value="Track_ID (FK)" style="text;align=left;verticalAlign=top;spacingLeft=4;spacingRight=4;overflow=hidden;rotatable=0;points=[[0,0.5],[1,0.5]];portConstraint=eastwest;fillColor=#FFF2CC;strokeColor=#b85450;" vertex="1" parent="VbPNYPBAlCRiUKL5gvJH-195">
          <mxGeometry y="46" width="240" height="26" as="geometry" />
        </mxCell>
        <mxCell id="VbPNYPBAlCRiUKL5gvJH-198" value="GradCertification" style="text;align=left;verticalAlign=top;spacingLeft=4;spacingRight=4;overflow=hidden;rotatable=0;points=[[0,0.5],[1,0.5]];portConstraint=eastwest;" vertex="1" parent="VbPNYPBAlCRiUKL5gvJH-195">
          <mxGeometry y="182" width="180" height="26" as="geometry" />
        </mxCell>
        <mxCell id="VbPNYPBAlCRiUKL5gvJH-199" value="GradJobStatus" style="text;align=left;verticalAlign=top;spacingLeft=4;spacingRight=4;overflow=hidden;rotatable=0;points=[[0,0.5],[1,0.5]];portConstraint=eastwest;" vertex="1" parent="VbPNYPBAlCRiUKL5gvJH-195">
          <mxGeometry y="160" width="220" height="26" as="geometry" />
        </mxCell>
        <mxCell id="VbPNYPBAlCRiUKL5gvJH-200" value="JobTitle" style="text;align=left;verticalAlign=top;spacingLeft=4;spacingRight=4;overflow=hidden;rotatable=0;points=[[0,0.5],[1,0.5]];portConstraint=eastwest;" vertex="1" parent="VbPNYPBAlCRiUKL5gvJH-195">
          <mxGeometry y="208" width="180" height="26" as="geometry" />
        </mxCell>
        <mxCell id="VbPNYPBAlCRiUKL5gvJH-201" value="JobType" style="text;align=left;verticalAlign=top;spacingLeft=4;spacingRight=4;overflow=hidden;rotatable=0;points=[[0,0.5],[1,0.5]];portConstraint=eastwest;" vertex="1" parent="VbPNYPBAlCRiUKL5gvJH-195">
          <mxGeometry y="234" width="180" height="26" as="geometry" />
        </mxCell>
        <mxCell id="VbPNYPBAlCRiUKL5gvJH-202" value="HiredDate" style="text;align=left;verticalAlign=top;spacingLeft=4;spacingRight=4;overflow=hidden;rotatable=0;points=[[0,0.5],[1,0.5]];portConstraint=eastwest;" vertex="1" parent="VbPNYPBAlCRiUKL5gvJH-195">
          <mxGeometry y="286" width="220" height="26" as="geometry" />
        </mxCell>
        <mxCell id="VbPNYPBAlCRiUKL5gvJH-203" value="Salary" style="text;align=left;verticalAlign=top;spacingLeft=4;spacingRight=4;overflow=hidden;rotatable=0;points=[[0,0.5],[1,0.5]];portConstraint=eastwest;" vertex="1" parent="VbPNYPBAlCRiUKL5gvJH-195">
          <mxGeometry y="260" width="180" height="26" as="geometry" />
        </mxCell>
        <mxCell id="N4IuujPrrMdxkEmlx3xR-1" value="ITIGraduationYear" style="text;align=left;verticalAlign=top;spacingLeft=4;spacingRight=4;overflow=hidden;rotatable=0;points=[[0,0.5],[1,0.5]];portConstraint=eastwest;" vertex="1" parent="VbPNYPBAlCRiUKL5gvJH-195">
          <mxGeometry y="310" width="230" height="26" as="geometry" />
        </mxCell>
        <mxCell id="up-_A-7h4SllcFKSKBHh-18" value="Grad_SSN&#xa;" style="text;align=left;verticalAlign=top;spacingLeft=4;spacingRight=4;overflow=hidden;rotatable=0;points=[[0,0.5],[1,0.5]];portConstraint=eastwest;" vertex="1" parent="VbPNYPBAlCRiUKL5gvJH-195">
          <mxGeometry y="72" width="210" height="26" as="geometry" />
        </mxCell>
        <mxCell id="up-_A-7h4SllcFKSKBHh-19" value="Grad_Fname" style="text;align=left;verticalAlign=top;spacingLeft=4;spacingRight=4;overflow=hidden;rotatable=0;points=[[0,0.5],[1,0.5]];portConstraint=eastwest;" vertex="1" parent="VbPNYPBAlCRiUKL5gvJH-195">
          <mxGeometry y="90" width="210" height="26" as="geometry" />
        </mxCell>
        <mxCell id="up-_A-7h4SllcFKSKBHh-20" value="Grad_Lname" style="text;align=left;verticalAlign=top;spacingLeft=4;spacingRight=4;overflow=hidden;rotatable=0;points=[[0,0.5],[1,0.5]];portConstraint=eastwest;" vertex="1" parent="VbPNYPBAlCRiUKL5gvJH-195">
          <mxGeometry y="116" width="220" height="26" as="geometry" />
        </mxCell>
        <mxCell id="up-_A-7h4SllcFKSKBHh-21" value="Gender" style="text;align=left;verticalAlign=top;spacingLeft=4;spacingRight=4;overflow=hidden;rotatable=0;points=[[0,0.5],[1,0.5]];portConstraint=eastwest;" vertex="1" parent="VbPNYPBAlCRiUKL5gvJH-195">
          <mxGeometry y="142" width="220" height="26" as="geometry" />
        </mxCell>
        <mxCell id="VbPNYPBAlCRiUKL5gvJH-207" value="Graduates_Work_at_Company" style="swimlane;whiteSpace=wrap;html=1;fillColor=#B0E3E6;" vertex="1" parent="1">
          <mxGeometry x="270" y="-400" width="210" height="80" as="geometry" />
        </mxCell>
        <mxCell id="VbPNYPBAlCRiUKL5gvJH-208" value="Graduate_ID (FK) (PK)" style="text;align=left;verticalAlign=top;spacingLeft=4;spacingRight=4;overflow=hidden;rotatable=0;points=[[0,0.5],[1,0.5]];portConstraint=eastwest;fillColor=#F8CECC;strokeColor=#82b366;" vertex="1" parent="VbPNYPBAlCRiUKL5gvJH-207">
          <mxGeometry y="21" width="210" height="26" as="geometry" />
        </mxCell>
        <mxCell id="VbPNYPBAlCRiUKL5gvJH-209" value="C_ID (FK)" style="text;align=left;verticalAlign=top;spacingLeft=4;spacingRight=4;overflow=hidden;rotatable=0;points=[[0,0.5],[1,0.5]];portConstraint=eastwest;fillColor=#FFF2CC;strokeColor=#b85450;" vertex="1" parent="VbPNYPBAlCRiUKL5gvJH-207">
          <mxGeometry y="47" width="210" height="26" as="geometry" />
        </mxCell>
        <mxCell id="up-_A-7h4SllcFKSKBHh-28" value="" style="endArrow=none;html=1;rounded=0;" edge="1" parent="VbPNYPBAlCRiUKL5gvJH-207" source="VbPNYPBAlCRiUKL5gvJH-208">
          <mxGeometry width="50" height="50" relative="1" as="geometry">
            <mxPoint x="-340.71067811865476" y="484" as="sourcePoint" />
            <mxPoint x="-150" y="34" as="targetPoint" />
          </mxGeometry>
        </mxCell>
        <mxCell id="VbPNYPBAlCRiUKL5gvJH-210" value="Company" style="swimlane;whiteSpace=wrap;html=1;fillColor=#B0E3E6;" vertex="1" parent="1">
          <mxGeometry x="270" y="-300" width="202.5" height="100" as="geometry" />
        </mxCell>
        <mxCell id="VbPNYPBAlCRiUKL5gvJH-211" value="C_ID (PK)" style="text;align=left;verticalAlign=top;spacingLeft=4;spacingRight=4;overflow=hidden;rotatable=0;points=[[0,0.5],[1,0.5]];portConstraint=eastwest;fillColor=#F8CECC;strokeColor=#6c8ebf;" vertex="1" parent="VbPNYPBAlCRiUKL5gvJH-210">
          <mxGeometry y="21" width="202.5" height="26" as="geometry" />
        </mxCell>
        <mxCell id="VbPNYPBAlCRiUKL5gvJH-212" value="C_Name" style="text;align=left;verticalAlign=top;spacingLeft=4;spacingRight=4;overflow=hidden;rotatable=0;points=[[0,0.5],[1,0.5]];portConstraint=eastwest;" vertex="1" parent="VbPNYPBAlCRiUKL5gvJH-210">
          <mxGeometry y="47" width="202.5" height="26" as="geometry" />
        </mxCell>
        <mxCell id="VbPNYPBAlCRiUKL5gvJH-213" value="C_Location" style="text;align=left;verticalAlign=top;spacingLeft=4;spacingRight=4;overflow=hidden;rotatable=0;points=[[0,0.5],[1,0.5]];portConstraint=eastwest;" vertex="1" parent="VbPNYPBAlCRiUKL5gvJH-210">
          <mxGeometry y="73" width="202.5" height="26" as="geometry" />
        </mxCell>
        <mxCell id="VbPNYPBAlCRiUKL5gvJH-217" value="" style="endArrow=none;html=1;rounded=0;" edge="1" parent="1">
          <mxGeometry width="50" height="50" relative="1" as="geometry">
            <mxPoint x="230" y="-340" as="sourcePoint" />
            <mxPoint x="270" y="-340" as="targetPoint" />
          </mxGeometry>
        </mxCell>
        <mxCell id="VbPNYPBAlCRiUKL5gvJH-218" value="" style="endArrow=none;html=1;rounded=0;" edge="1" parent="1">
          <mxGeometry width="50" height="50" relative="1" as="geometry">
            <mxPoint x="230" y="-270" as="sourcePoint" />
            <mxPoint x="230" y="-340" as="targetPoint" />
          </mxGeometry>
        </mxCell>
        <mxCell id="VbPNYPBAlCRiUKL5gvJH-219" value="" style="endArrow=classic;html=1;rounded=0;" edge="1" parent="1" target="VbPNYPBAlCRiUKL5gvJH-211">
          <mxGeometry width="50" height="50" relative="1" as="geometry">
            <mxPoint x="230" y="-270" as="sourcePoint" />
            <mxPoint x="280" y="-320" as="targetPoint" />
          </mxGeometry>
        </mxCell>
        <mxCell id="VbPNYPBAlCRiUKL5gvJH-220" value="Exam" style="swimlane;whiteSpace=wrap;html=1;fillColor=#B0E3E6;" vertex="1" parent="1">
          <mxGeometry x="270" y="380" width="160" height="230" as="geometry" />
        </mxCell>
        <mxCell id="VbPNYPBAlCRiUKL5gvJH-221" value="Exam_ID (PK)" style="text;align=left;verticalAlign=top;spacingLeft=4;spacingRight=4;overflow=hidden;rotatable=0;points=[[0,0.5],[1,0.5]];portConstraint=eastwest;fillColor=#F8CECC;strokeColor=#6c8ebf;" vertex="1" parent="VbPNYPBAlCRiUKL5gvJH-220">
          <mxGeometry y="26" width="160" height="26" as="geometry" />
        </mxCell>
        <mxCell id="VbPNYPBAlCRiUKL5gvJH-222" value="Course_ID (FK)" style="text;align=left;verticalAlign=top;spacingLeft=4;spacingRight=4;overflow=hidden;rotatable=0;points=[[0,0.5],[1,0.5]];portConstraint=eastwest;fillColor=#FFF2CC;strokeColor=#b85450;" vertex="1" parent="VbPNYPBAlCRiUKL5gvJH-220">
          <mxGeometry y="52" width="160" height="26" as="geometry" />
        </mxCell>
        <mxCell id="VbPNYPBAlCRiUKL5gvJH-223" value="ExamLevel" style="text;align=left;verticalAlign=top;spacingLeft=4;spacingRight=4;overflow=hidden;rotatable=0;points=[[0,0.5],[1,0.5]];portConstraint=eastwest;" vertex="1" parent="VbPNYPBAlCRiUKL5gvJH-220">
          <mxGeometry y="80" width="160" height="26" as="geometry" />
        </mxCell>
        <mxCell id="VbPNYPBAlCRiUKL5gvJH-224" value="ExamType" style="text;align=left;verticalAlign=top;spacingLeft=4;spacingRight=4;overflow=hidden;rotatable=0;points=[[0,0.5],[1,0.5]];portConstraint=eastwest;" vertex="1" parent="VbPNYPBAlCRiUKL5gvJH-220">
          <mxGeometry y="106" width="160" height="26" as="geometry" />
        </mxCell>
        <mxCell id="VbPNYPBAlCRiUKL5gvJH-225" value="ExamName" style="text;align=left;verticalAlign=top;spacingLeft=4;spacingRight=4;overflow=hidden;rotatable=0;points=[[0,0.5],[1,0.5]];portConstraint=eastwest;" vertex="1" parent="VbPNYPBAlCRiUKL5gvJH-220">
          <mxGeometry y="130" width="160" height="26" as="geometry" />
        </mxCell>
        <mxCell id="VbPNYPBAlCRiUKL5gvJH-226" value="ExamDate" style="text;align=left;verticalAlign=top;spacingLeft=4;spacingRight=4;overflow=hidden;rotatable=0;points=[[0,0.5],[1,0.5]];portConstraint=eastwest;" vertex="1" parent="VbPNYPBAlCRiUKL5gvJH-220">
          <mxGeometry y="150" width="160" height="26" as="geometry" />
        </mxCell>
        <mxCell id="VbPNYPBAlCRiUKL5gvJH-227" value="ExamDuration" style="text;align=left;verticalAlign=top;spacingLeft=4;spacingRight=4;overflow=hidden;rotatable=0;points=[[0,0.5],[1,0.5]];portConstraint=eastwest;" vertex="1" parent="VbPNYPBAlCRiUKL5gvJH-220">
          <mxGeometry y="176" width="160" height="26" as="geometry" />
        </mxCell>
        <mxCell id="VbPNYPBAlCRiUKL5gvJH-228" value="Fullmark" style="text;align=left;verticalAlign=top;spacingLeft=4;spacingRight=4;overflow=hidden;rotatable=0;points=[[0,0.5],[1,0.5]];portConstraint=eastwest;" vertex="1" parent="VbPNYPBAlCRiUKL5gvJH-220">
          <mxGeometry y="200" width="160" height="26" as="geometry" />
        </mxCell>
        <mxCell id="t2H2F716Dja4dvgWAVQv-7" value="" style="endArrow=classic;html=1;rounded=0;entryX=0;entryY=0.5;entryDx=0;entryDy=0;" edge="1" parent="VbPNYPBAlCRiUKL5gvJH-220" target="VbPNYPBAlCRiUKL5gvJH-221">
          <mxGeometry width="50" height="50" relative="1" as="geometry">
            <mxPoint x="-30" y="38.5" as="sourcePoint" />
            <mxPoint x="-10" y="39" as="targetPoint" />
          </mxGeometry>
        </mxCell>
        <mxCell id="up-_A-7h4SllcFKSKBHh-8" value="" style="endArrow=classic;html=1;rounded=0;" edge="1" parent="VbPNYPBAlCRiUKL5gvJH-220">
          <mxGeometry width="50" height="50" relative="1" as="geometry">
            <mxPoint x="-50" y="30" as="sourcePoint" />
            <mxPoint y="30" as="targetPoint" />
          </mxGeometry>
        </mxCell>
        <mxCell id="VbPNYPBAlCRiUKL5gvJH-230" value="" style="endArrow=classic;html=1;rounded=0;" edge="1" parent="1">
          <mxGeometry width="50" height="50" relative="1" as="geometry">
            <mxPoint x="470" y="100" as="sourcePoint" />
            <mxPoint x="520" y="100" as="targetPoint" />
          </mxGeometry>
        </mxCell>
        <mxCell id="VbPNYPBAlCRiUKL5gvJH-231" value="" style="endArrow=none;html=1;rounded=0;" edge="1" parent="1">
          <mxGeometry width="50" height="50" relative="1" as="geometry">
            <mxPoint x="470" y="450" as="sourcePoint" />
            <mxPoint x="470" y="100" as="targetPoint" />
          </mxGeometry>
        </mxCell>
        <mxCell id="VbPNYPBAlCRiUKL5gvJH-232" value="" style="endArrow=none;html=1;rounded=0;" edge="1" parent="1">
          <mxGeometry width="50" height="50" relative="1" as="geometry">
            <mxPoint x="430" y="450" as="sourcePoint" />
            <mxPoint x="470" y="450" as="targetPoint" />
          </mxGeometry>
        </mxCell>
        <mxCell id="VbPNYPBAlCRiUKL5gvJH-233" value="Student Answers Exam" style="swimlane;whiteSpace=wrap;html=1;fillColor=#B0E3E6;" vertex="1" parent="1">
          <mxGeometry x="530" y="400" width="200" height="170" as="geometry" />
        </mxCell>
        <mxCell id="VbPNYPBAlCRiUKL5gvJH-234" value="S_ID (FK)" style="text;align=left;verticalAlign=top;spacingLeft=4;spacingRight=4;overflow=hidden;rotatable=0;points=[[0,0.5],[1,0.5]];portConstraint=eastwest;fillColor=#FFF2CC;strokeColor=#9673a6;" vertex="1" parent="VbPNYPBAlCRiUKL5gvJH-233">
          <mxGeometry y="20" width="200" height="26" as="geometry" />
        </mxCell>
        <mxCell id="VbPNYPBAlCRiUKL5gvJH-235" value="Question_ID (FK) (Composite)" style="text;align=left;verticalAlign=top;spacingLeft=4;spacingRight=4;overflow=hidden;rotatable=0;points=[[0,0.5],[1,0.5]];portConstraint=eastwest;fillColor=#FFF2CC;strokeColor=#9673a6;" vertex="1" parent="VbPNYPBAlCRiUKL5gvJH-233">
          <mxGeometry y="46" width="200" height="26" as="geometry" />
        </mxCell>
        <mxCell id="VbPNYPBAlCRiUKL5gvJH-236" value="Exam_ID (FK)" style="text;align=left;verticalAlign=top;spacingLeft=4;spacingRight=4;overflow=hidden;rotatable=0;points=[[0,0.5],[1,0.5]];portConstraint=eastwest;fillColor=#FFF2CC;strokeColor=#b85450;" vertex="1" parent="VbPNYPBAlCRiUKL5gvJH-233">
          <mxGeometry y="72" width="200" height="26" as="geometry" />
        </mxCell>
        <mxCell id="VbPNYPBAlCRiUKL5gvJH-237" value="St_Answer" style="text;align=left;verticalAlign=top;spacingLeft=4;spacingRight=4;overflow=hidden;rotatable=0;points=[[0,0.5],[1,0.5]];portConstraint=eastwest;" vertex="1" parent="VbPNYPBAlCRiUKL5gvJH-233">
          <mxGeometry y="98" width="200" height="26" as="geometry" />
        </mxCell>
        <mxCell id="yMbcw3nS2tXTXuozp96u-14" value="Grade" style="text;align=left;verticalAlign=top;spacingLeft=4;spacingRight=4;overflow=hidden;rotatable=0;points=[[0,0.5],[1,0.5]];portConstraint=eastwest;" vertex="1" parent="VbPNYPBAlCRiUKL5gvJH-233">
          <mxGeometry y="124" width="200" height="26" as="geometry" />
        </mxCell>
        <mxCell id="VbPNYPBAlCRiUKL5gvJH-238" value="" style="endArrow=classic;html=1;rounded=0;" edge="1" parent="1">
          <mxGeometry width="50" height="50" relative="1" as="geometry">
            <mxPoint x="790" y="-80" as="sourcePoint" />
            <mxPoint x="830" y="-80" as="targetPoint" />
          </mxGeometry>
        </mxCell>
        <mxCell id="VbPNYPBAlCRiUKL5gvJH-239" value="" style="endArrow=none;html=1;rounded=0;" edge="1" parent="1">
          <mxGeometry width="50" height="50" relative="1" as="geometry">
            <mxPoint x="790" y="430" as="sourcePoint" />
            <mxPoint x="790" y="-80" as="targetPoint" />
          </mxGeometry>
        </mxCell>
        <mxCell id="VbPNYPBAlCRiUKL5gvJH-242" value="" style="endArrow=none;html=1;rounded=0;" edge="1" parent="1">
          <mxGeometry width="50" height="50" relative="1" as="geometry">
            <mxPoint x="730" y="430" as="sourcePoint" />
            <mxPoint x="790" y="430" as="targetPoint" />
          </mxGeometry>
        </mxCell>
        <mxCell id="VbPNYPBAlCRiUKL5gvJH-243" value="" style="endArrow=none;html=1;rounded=0;" edge="1" parent="1">
          <mxGeometry width="50" height="50" relative="1" as="geometry">
            <mxPoint x="450" y="480" as="sourcePoint" />
            <mxPoint x="530" y="480" as="targetPoint" />
          </mxGeometry>
        </mxCell>
        <mxCell id="VbPNYPBAlCRiUKL5gvJH-244" value="" style="endArrow=none;html=1;rounded=0;" edge="1" parent="1">
          <mxGeometry width="50" height="50" relative="1" as="geometry">
            <mxPoint x="450" y="480" as="sourcePoint" />
            <mxPoint x="450" y="420" as="targetPoint" />
          </mxGeometry>
        </mxCell>
        <mxCell id="VbPNYPBAlCRiUKL5gvJH-245" value="" style="endArrow=classic;html=1;rounded=0;entryX=1;entryY=0.5;entryDx=0;entryDy=0;" edge="1" parent="1" target="VbPNYPBAlCRiUKL5gvJH-221">
          <mxGeometry width="50" height="50" relative="1" as="geometry">
            <mxPoint x="450" y="420" as="sourcePoint" />
            <mxPoint x="500" y="380" as="targetPoint" />
          </mxGeometry>
        </mxCell>
        <mxCell id="VbPNYPBAlCRiUKL5gvJH-260" value="Question" style="swimlane;whiteSpace=wrap;html=1;fillColor=#B0E3E6;" vertex="1" parent="1">
          <mxGeometry x="800" y="430" width="200" height="220" as="geometry" />
        </mxCell>
        <mxCell id="VbPNYPBAlCRiUKL5gvJH-261" value="Question_ID (PK)" style="text;align=left;verticalAlign=top;spacingLeft=4;spacingRight=4;overflow=hidden;rotatable=0;points=[[0,0.5],[1,0.5]];portConstraint=eastwest;fillColor=#F8CECC;strokeColor=#6c8ebf;" vertex="1" parent="VbPNYPBAlCRiUKL5gvJH-260">
          <mxGeometry y="20" width="200" height="26" as="geometry" />
        </mxCell>
        <mxCell id="VbPNYPBAlCRiUKL5gvJH-262" value="Question_Text" style="text;align=left;verticalAlign=top;spacingLeft=4;spacingRight=4;overflow=hidden;rotatable=0;points=[[0,0.5],[1,0.5]];portConstraint=eastwest;" vertex="1" parent="VbPNYPBAlCRiUKL5gvJH-260">
          <mxGeometry y="72" width="200" height="26" as="geometry" />
        </mxCell>
        <mxCell id="VbPNYPBAlCRiUKL5gvJH-263" value="CorrectAnswer" style="text;align=left;verticalAlign=top;spacingLeft=4;spacingRight=4;overflow=hidden;rotatable=0;points=[[0,0.5],[1,0.5]];portConstraint=eastwest;" vertex="1" parent="VbPNYPBAlCRiUKL5gvJH-260">
          <mxGeometry y="94" width="200" height="26" as="geometry" />
        </mxCell>
        <mxCell id="VbPNYPBAlCRiUKL5gvJH-264" value="QuestionLevel" style="text;align=left;verticalAlign=top;spacingLeft=4;spacingRight=4;overflow=hidden;rotatable=0;points=[[0,0.5],[1,0.5]];portConstraint=eastwest;" vertex="1" parent="VbPNYPBAlCRiUKL5gvJH-260">
          <mxGeometry y="120" width="200" height="26" as="geometry" />
        </mxCell>
        <mxCell id="VbPNYPBAlCRiUKL5gvJH-265" value="QuestionType" style="text;align=left;verticalAlign=top;spacingLeft=4;spacingRight=4;overflow=hidden;rotatable=0;points=[[0,0.5],[1,0.5]];portConstraint=eastwest;" vertex="1" parent="VbPNYPBAlCRiUKL5gvJH-260">
          <mxGeometry y="146" width="200" height="26" as="geometry" />
        </mxCell>
        <mxCell id="VbPNYPBAlCRiUKL5gvJH-266" value="" style="endArrow=classic;html=1;rounded=0;" edge="1" parent="VbPNYPBAlCRiUKL5gvJH-260">
          <mxGeometry width="50" height="50" relative="1" as="geometry">
            <mxPoint x="-70" y="40" as="sourcePoint" />
            <mxPoint y="40" as="targetPoint" />
          </mxGeometry>
        </mxCell>
        <mxCell id="SvgKqI9EbPMlceUsmt5l-1" value="Course_ID (FK)" style="text;align=left;verticalAlign=top;spacingLeft=4;spacingRight=4;overflow=hidden;rotatable=0;points=[[0,0.5],[1,0.5]];portConstraint=eastwest;fillColor=#FFF2CC;strokeColor=#b85450;" vertex="1" parent="VbPNYPBAlCRiUKL5gvJH-260">
          <mxGeometry y="46" width="200" height="26" as="geometry" />
        </mxCell>
        <mxCell id="up-_A-7h4SllcFKSKBHh-2" value="Exam_ID (FK)" style="text;align=left;verticalAlign=top;spacingLeft=4;spacingRight=4;overflow=hidden;rotatable=0;points=[[0,0.5],[1,0.5]];portConstraint=eastwest;fillColor=#FFF2CC;strokeColor=#b85450;" vertex="1" parent="VbPNYPBAlCRiUKL5gvJH-260">
          <mxGeometry y="172" width="200" height="26" as="geometry" />
        </mxCell>
        <mxCell id="up-_A-7h4SllcFKSKBHh-3" value="" style="endArrow=none;html=1;rounded=0;" edge="1" parent="VbPNYPBAlCRiUKL5gvJH-260" source="up-_A-7h4SllcFKSKBHh-2">
          <mxGeometry width="50" height="50" relative="1" as="geometry">
            <mxPoint x="-600" y="-195" as="sourcePoint" />
            <mxPoint x="280" y="185" as="targetPoint" />
          </mxGeometry>
        </mxCell>
        <mxCell id="VbPNYPBAlCRiUKL5gvJH-267" value="Question Choices" style="swimlane;whiteSpace=wrap;html=1;fillColor=#B0E3E6;" vertex="1" parent="1">
          <mxGeometry x="1050" y="425" width="200" height="75" as="geometry" />
        </mxCell>
        <mxCell id="VbPNYPBAlCRiUKL5gvJH-268" value="Question_ID (FK)" style="text;align=left;verticalAlign=top;spacingLeft=4;spacingRight=4;overflow=hidden;rotatable=0;points=[[0,0.5],[1,0.5]];portConstraint=eastwest;fillColor=#FFF2CC;strokeColor=#9673a6;" vertex="1" parent="VbPNYPBAlCRiUKL5gvJH-267">
          <mxGeometry y="23" width="200" height="26" as="geometry" />
        </mxCell>
        <mxCell id="VbPNYPBAlCRiUKL5gvJH-269" value="Choice (Composite)" style="text;align=left;verticalAlign=top;spacingLeft=4;spacingRight=4;overflow=hidden;rotatable=0;points=[[0,0.5],[1,0.5]];portConstraint=eastwest;fillColor=#FFF2CC;strokeColor=#9673a6;" vertex="1" parent="VbPNYPBAlCRiUKL5gvJH-267">
          <mxGeometry y="49" width="200" height="26" as="geometry" />
        </mxCell>
        <mxCell id="VbPNYPBAlCRiUKL5gvJH-270" value="" style="endArrow=classic;html=1;rounded=0;entryX=1;entryY=0.5;entryDx=0;entryDy=0;" edge="1" parent="1" target="VbPNYPBAlCRiUKL5gvJH-261">
          <mxGeometry width="50" height="50" relative="1" as="geometry">
            <mxPoint x="1050" y="463" as="sourcePoint" />
            <mxPoint x="970" y="464.5" as="targetPoint" />
          </mxGeometry>
        </mxCell>
        <mxCell id="VbPNYPBAlCRiUKL5gvJH-271" value="" style="rhombus;whiteSpace=wrap;html=1;" vertex="1" parent="1">
          <mxGeometry x="472.5" y="-1200" width="80" height="80" as="geometry" />
        </mxCell>
        <mxCell id="VbPNYPBAlCRiUKL5gvJH-272" value="" style="rhombus;whiteSpace=wrap;html=1;" vertex="1" parent="1">
          <mxGeometry x="-650" y="-65" width="80" height="80" as="geometry" />
        </mxCell>
        <mxCell id="VbPNYPBAlCRiUKL5gvJH-273" value="" style="rhombus;whiteSpace=wrap;html=1;" vertex="1" parent="1">
          <mxGeometry x="1610" y="56" width="80" height="80" as="geometry" />
        </mxCell>
        <mxCell id="VbPNYPBAlCRiUKL5gvJH-274" value="" style="rhombus;whiteSpace=wrap;html=1;" vertex="1" parent="1">
          <mxGeometry x="839" y="940" width="80" height="80" as="geometry" />
        </mxCell>
        <mxCell id="t2H2F716Dja4dvgWAVQv-1" value="Exam_Quest_Generation" style="swimlane;whiteSpace=wrap;html=1;fillColor=#B0E3E6;" vertex="1" parent="1">
          <mxGeometry x="520" y="650" width="210" height="110" as="geometry" />
        </mxCell>
        <mxCell id="t2H2F716Dja4dvgWAVQv-2" value="Exam_ID (FK)" style="text;align=left;verticalAlign=top;spacingLeft=4;spacingRight=4;overflow=hidden;rotatable=0;points=[[0,0.5],[1,0.5]];portConstraint=eastwest;fillColor=#FFF2CC;strokeColor=#9673a6;" vertex="1" parent="t2H2F716Dja4dvgWAVQv-1">
          <mxGeometry y="20" width="210" height="26" as="geometry" />
        </mxCell>
        <mxCell id="t2H2F716Dja4dvgWAVQv-3" value="Question_ID (FK) (Composite)" style="text;align=left;verticalAlign=top;spacingLeft=4;spacingRight=4;overflow=hidden;rotatable=0;points=[[0,0.5],[1,0.5]];portConstraint=eastwest;fillColor=#FFF2CC;strokeColor=#9673a6;" vertex="1" parent="t2H2F716Dja4dvgWAVQv-1">
          <mxGeometry y="46" width="210" height="26" as="geometry" />
        </mxCell>
        <mxCell id="t2H2F716Dja4dvgWAVQv-4" value="" style="endArrow=none;html=1;rounded=0;" edge="1" parent="1">
          <mxGeometry width="50" height="50" relative="1" as="geometry">
            <mxPoint x="240" y="680" as="sourcePoint" />
            <mxPoint x="520" y="680" as="targetPoint" />
          </mxGeometry>
        </mxCell>
        <mxCell id="t2H2F716Dja4dvgWAVQv-5" value="" style="endArrow=none;html=1;rounded=0;" edge="1" parent="1">
          <mxGeometry width="50" height="50" relative="1" as="geometry">
            <mxPoint x="240" y="680" as="sourcePoint" />
            <mxPoint x="240" y="420" as="targetPoint" />
          </mxGeometry>
        </mxCell>
        <mxCell id="t2H2F716Dja4dvgWAVQv-8" value="" style="endArrow=none;html=1;rounded=0;" edge="1" parent="1">
          <mxGeometry width="50" height="50" relative="1" as="geometry">
            <mxPoint x="730" y="710" as="sourcePoint" />
            <mxPoint x="770" y="710" as="targetPoint" />
          </mxGeometry>
        </mxCell>
        <mxCell id="t2H2F716Dja4dvgWAVQv-9" value="" style="endArrow=none;html=1;rounded=0;" edge="1" parent="1">
          <mxGeometry width="50" height="50" relative="1" as="geometry">
            <mxPoint x="770" y="710" as="sourcePoint" />
            <mxPoint x="770" y="460" as="targetPoint" />
          </mxGeometry>
        </mxCell>
        <mxCell id="t2H2F716Dja4dvgWAVQv-10" value="" style="endArrow=classic;html=1;rounded=0;" edge="1" parent="1" target="VbPNYPBAlCRiUKL5gvJH-261">
          <mxGeometry width="50" height="50" relative="1" as="geometry">
            <mxPoint x="770" y="460" as="sourcePoint" />
            <mxPoint x="820" y="410" as="targetPoint" />
          </mxGeometry>
        </mxCell>
        <mxCell id="SvgKqI9EbPMlceUsmt5l-2" value="" style="endArrow=none;html=1;rounded=0;" edge="1" parent="1">
          <mxGeometry width="50" height="50" relative="1" as="geometry">
            <mxPoint x="1000" y="500" as="sourcePoint" />
            <mxPoint x="1030" y="500" as="targetPoint" />
          </mxGeometry>
        </mxCell>
        <mxCell id="SvgKqI9EbPMlceUsmt5l-3" value="" style="endArrow=none;html=1;rounded=0;" edge="1" parent="1">
          <mxGeometry width="50" height="50" relative="1" as="geometry">
            <mxPoint x="1030" y="500" as="sourcePoint" />
            <mxPoint x="1030" y="330" as="targetPoint" />
          </mxGeometry>
        </mxCell>
        <mxCell id="SvgKqI9EbPMlceUsmt5l-4" value="" style="endArrow=none;html=1;rounded=0;" edge="1" parent="1">
          <mxGeometry width="50" height="50" relative="1" as="geometry">
            <mxPoint x="710" y="330" as="sourcePoint" />
            <mxPoint x="1030" y="330" as="targetPoint" />
          </mxGeometry>
        </mxCell>
        <mxCell id="SvgKqI9EbPMlceUsmt5l-5" value="" style="endArrow=none;html=1;rounded=0;" edge="1" parent="1">
          <mxGeometry width="50" height="50" relative="1" as="geometry">
            <mxPoint x="710" y="330" as="sourcePoint" />
            <mxPoint x="710" y="110" as="targetPoint" />
          </mxGeometry>
        </mxCell>
        <mxCell id="SvgKqI9EbPMlceUsmt5l-6" value="" style="endArrow=classic;html=1;rounded=0;" edge="1" parent="1">
          <mxGeometry width="50" height="50" relative="1" as="geometry">
            <mxPoint x="710" y="110" as="sourcePoint" />
            <mxPoint x="690" y="110" as="targetPoint" />
          </mxGeometry>
        </mxCell>
        <mxCell id="up-_A-7h4SllcFKSKBHh-5" value="" style="endArrow=none;html=1;rounded=0;" edge="1" parent="1">
          <mxGeometry width="50" height="50" relative="1" as="geometry">
            <mxPoint x="1080" y="840" as="sourcePoint" />
            <mxPoint x="1080" y="620" as="targetPoint" />
          </mxGeometry>
        </mxCell>
        <mxCell id="up-_A-7h4SllcFKSKBHh-6" value="" style="endArrow=none;html=1;rounded=0;" edge="1" parent="1">
          <mxGeometry width="50" height="50" relative="1" as="geometry">
            <mxPoint x="220" y="840" as="sourcePoint" />
            <mxPoint x="1080" y="840" as="targetPoint" />
          </mxGeometry>
        </mxCell>
        <mxCell id="up-_A-7h4SllcFKSKBHh-7" value="" style="endArrow=none;html=1;rounded=0;" edge="1" parent="1">
          <mxGeometry width="50" height="50" relative="1" as="geometry">
            <mxPoint x="220" y="840" as="sourcePoint" />
            <mxPoint x="220" y="410" as="targetPoint" />
          </mxGeometry>
        </mxCell>
        <mxCell id="up-_A-7h4SllcFKSKBHh-23" value="" style="endArrow=none;html=1;rounded=0;" edge="1" parent="1">
          <mxGeometry width="50" height="50" relative="1" as="geometry">
            <mxPoint x="440" y="-630" as="sourcePoint" />
            <mxPoint x="500" y="-630" as="targetPoint" />
          </mxGeometry>
        </mxCell>
        <mxCell id="up-_A-7h4SllcFKSKBHh-24" value="" style="endArrow=none;html=1;rounded=0;" edge="1" parent="1">
          <mxGeometry width="50" height="50" relative="1" as="geometry">
            <mxPoint x="440" y="-460" as="sourcePoint" />
            <mxPoint x="440" y="-630" as="targetPoint" />
          </mxGeometry>
        </mxCell>
        <mxCell id="up-_A-7h4SllcFKSKBHh-25" value="" style="endArrow=none;html=1;rounded=0;" edge="1" parent="1">
          <mxGeometry width="50" height="50" relative="1" as="geometry">
            <mxPoint x="190" y="-460" as="sourcePoint" />
            <mxPoint x="440" y="-460" as="targetPoint" />
          </mxGeometry>
        </mxCell>
        <mxCell id="up-_A-7h4SllcFKSKBHh-26" value="" style="endArrow=none;html=1;rounded=0;" edge="1" parent="1">
          <mxGeometry width="50" height="50" relative="1" as="geometry">
            <mxPoint x="190" y="-140" as="sourcePoint" />
            <mxPoint x="190" y="-460" as="targetPoint" />
          </mxGeometry>
        </mxCell>
        <mxCell id="up-_A-7h4SllcFKSKBHh-27" value="" style="endArrow=classic;html=1;rounded=0;" edge="1" parent="1" target="VbPNYPBAlCRiUKL5gvJH-40">
          <mxGeometry width="50" height="50" relative="1" as="geometry">
            <mxPoint x="190" y="-140" as="sourcePoint" />
            <mxPoint x="240" y="-190" as="targetPoint" />
          </mxGeometry>
        </mxCell>
        <mxCell id="up-_A-7h4SllcFKSKBHh-29" value="" style="endArrow=none;html=1;rounded=0;" edge="1" parent="1">
          <mxGeometry width="50" height="50" relative="1" as="geometry">
            <mxPoint x="119.29" y="-367" as="sourcePoint" />
            <mxPoint x="119" y="-510" as="targetPoint" />
          </mxGeometry>
        </mxCell>
        <mxCell id="up-_A-7h4SllcFKSKBHh-30" value="" style="endArrow=none;html=1;rounded=0;" edge="1" parent="1">
          <mxGeometry width="50" height="50" relative="1" as="geometry">
            <mxPoint x="120" y="-510" as="sourcePoint" />
            <mxPoint x="420" y="-510" as="targetPoint" />
          </mxGeometry>
        </mxCell>
        <mxCell id="up-_A-7h4SllcFKSKBHh-31" value="" style="endArrow=none;html=1;rounded=0;" edge="1" parent="1">
          <mxGeometry width="50" height="50" relative="1" as="geometry">
            <mxPoint x="420" y="-510" as="sourcePoint" />
            <mxPoint x="420" y="-660" as="targetPoint" />
          </mxGeometry>
        </mxCell>
        <mxCell id="up-_A-7h4SllcFKSKBHh-32" value="" style="endArrow=classic;html=1;rounded=0;entryX=0;entryY=0.5;entryDx=0;entryDy=0;" edge="1" parent="1" target="VbPNYPBAlCRiUKL5gvJH-196">
          <mxGeometry width="50" height="50" relative="1" as="geometry">
            <mxPoint x="420" y="-657" as="sourcePoint" />
            <mxPoint x="470" y="-690" as="targetPoint" />
          </mxGeometry>
        </mxCell>
        <mxCell id="up-_A-7h4SllcFKSKBHh-33" value="" style="endArrow=none;html=1;rounded=0;" edge="1" parent="1">
          <mxGeometry width="50" height="50" relative="1" as="geometry">
            <mxPoint x="380" y="-720" as="sourcePoint" />
            <mxPoint x="420" y="-720" as="targetPoint" />
          </mxGeometry>
        </mxCell>
        <mxCell id="up-_A-7h4SllcFKSKBHh-35" value="" style="endArrow=classic;html=1;rounded=0;" edge="1" parent="1">
          <mxGeometry width="50" height="50" relative="1" as="geometry">
            <mxPoint x="420" y="-690" as="sourcePoint" />
            <mxPoint x="500" y="-670" as="targetPoint" />
          </mxGeometry>
        </mxCell>
        <mxCell id="up-_A-7h4SllcFKSKBHh-36" value="" style="endArrow=none;html=1;rounded=0;" edge="1" parent="1">
          <mxGeometry width="50" height="50" relative="1" as="geometry">
            <mxPoint x="420" y="-690" as="sourcePoint" />
            <mxPoint x="420" y="-720" as="targetPoint" />
          </mxGeometry>
        </mxCell>
        <mxCell id="up-_A-7h4SllcFKSKBHh-37" value="Graduate_Phones" style="swimlane;whiteSpace=wrap;html=1;fillColor=#B0E3E6;" vertex="1" parent="1">
          <mxGeometry x="835" y="-740" width="195" height="200" as="geometry" />
        </mxCell>
        <mxCell id="up-_A-7h4SllcFKSKBHh-39" value="Phone (Composite)" style="text;align=left;verticalAlign=top;spacingLeft=4;spacingRight=4;overflow=hidden;rotatable=0;points=[[0,0.5],[1,0.5]];portConstraint=eastwest;fillColor=#FFF2CC;strokeColor=#9673a6;" vertex="1" parent="up-_A-7h4SllcFKSKBHh-37">
          <mxGeometry y="50" width="195" height="26" as="geometry" />
        </mxCell>
        <mxCell id="up-_A-7h4SllcFKSKBHh-38" value="Graduate_ID (FK)" style="text;align=left;verticalAlign=top;spacingLeft=4;spacingRight=4;overflow=hidden;rotatable=0;points=[[0,0.5],[1,0.5]];portConstraint=eastwest;fillColor=#FFF2CC;strokeColor=#9673a6;" vertex="1" parent="1">
          <mxGeometry x="835" y="-716" width="195" height="26" as="geometry" />
        </mxCell>
        <mxCell id="up-_A-7h4SllcFKSKBHh-40" value="" style="endArrow=classic;html=1;rounded=0;" edge="1" parent="1">
          <mxGeometry width="50" height="50" relative="1" as="geometry">
            <mxPoint x="830" y="-700" as="sourcePoint" />
            <mxPoint x="750" y="-660" as="targetPoint" />
          </mxGeometry>
        </mxCell>
        <mxCell id="2lxuhLpDbcGipCuxHB0e-1" value="" style="shape=image;aspect=fixed;image=data:image/png,iVBORw0KGgoAAAANSUhEUgAAASwAAACFCAYAAADhGcXnAAAABmJLR0QA/wD/AP+gvaeTAAAACXBIWXMAABcSAAAXEgFnn9JSAAAUn0lEQVR42u2deXhc5XWHX0nYsizJyDZe2BwgDhMgkxAgQNlilZCEmoSUpSUkBUIJYQvQFAqYpXmAJKUESlqTsiQtrYFgUtpQMIESMiw2DgYHzGCbwSaWbfACtmW8ydpm8sc5t3PnasaWLGlmJP3e59Fj6c69d+58vvc35zvfWUAIIYQQQgghhBBCCCGEEH1ChYZg5yRi8d2AccB4oApYD6wBWhtTSQ2QEBKsshCqaqAR+BpwvAtWJbARmA88AcwCNki4hJBglVKsxgJXARcDuxfYrc1F60ZgsURLiP5lNw1BXrEaA/wIOA8YtoNdhwOnAROBc4F3NXpC9B+VGoIuYlUJfMMFaFg3rdRjgGmJWLxOIyiEBKuY7Ad8162nnkytzwSO0PAJIcEqJgcDk3bhuDrgpEQsLr+gEBKsovFZoHoXjqsAjgRqNIRCSLCKxcReHDuK7vm9hBASrD6huRfHbgc6NIRCSLCKRbIXopMEWjSEQkiwisUi4INdOK4FeKoxlUxrCIWQYBWLt4EHgc4eHJMBXgLmafiEkGAVjcZUsh34KfAi0F1r6V3g74F1GkEhJFjFZjnwHeApoHUH+6WBN4CLgHnKJRSif1GQYwESsTjAaCyf8HTgQCxsoQLzVy0DEsB0YFljKpnRqAkhwSq1cFViUez7A/tiCeNrfBq4oTGV7NQoCSGEEEIIITQlHOhTv2FAHKgNbU5jMVnvAS1yqgshwSoXwdoDK3f8qYhgNQNvAo8Dc4GUhz4IIYqMKo7mMgIYGdlWhznbv4w522ckYvH7gOWKaheiuCgOq/tUAXsDV2N13E/zJhVCCAlWWQvXIcB9wDWJWLxeQyKEBKvcGQ1cB1yfiMVrNRxCSLDKnRHA5cAFvsoohJBglTU1wDTgWE/nEUJIsMqaccA1Pk0UQkiwypoK4ATgGFlZQkiwBgIjgW+yax13hBASrKJzAnCAhkEICdZAoAGYoGEQQoI1EKgG9tEwCNE/KJewb6kC9vdE6sHMpsZUsk3/3UKCNfC5BDhjEH++NuBKYI7+q4UEa+Azkd61uy8lGax79Ub/dxRQDwwP7bMdq2AhhARLlIwtwKPAI8BKYBsWCPtJ4DLgaN0vQoIlyoH1WNmcRxtTya2h7SsSsfgCrEnsjcD5GipRSrRKKFqwJrAPRcQKgMZUksZUchVwA/AbDZeQYIlSkgRmdmPVbz1wG+puLSRYooQ86WK0Q7wBx2v+I4QESxSddmBhD7pWb8M6CAkhwRJlfw9UoE5LQoIlSsQw4IhELN7d+6AOJXcLCZYoIX9GNwJdvc7X54HDNWRCgiVKRQy4OBGLj9iJWO2FxWqN0pAJCZYoFcOBK4CrE7H46EQsXhERq0pgMnA3cIyGS5QSRboLsHzB64ETgV8kYvFXsFSdCcDJwGluiVUCHRouIcESpaYa81EdiyU/t7qQ1aOVQSHBGpS0AfcDy3pwzL7Ad7Aehz2lA/h3IFXEz9hR5PcTQoLVjw/zzMZU8qXuHpCIxY8EzuuFYD3WmEo+o6EXQwE53YUQEiwhhJBgCSGGLPJhiZ0ya3KsAqgFJgH7A3tjFR4en7o0lRPmkIjF48BfAe8D9zamkts1gkKCJfpbpMCCSg8D/hxLyTkIGOPbnwNm0TUu6xNYk4rXgQewGvBCSLBEv4lVJXAEcBGWazgexWIJCZYoQ7GqAy4GLvUpYF8LVQXWnUcICZbo1RRwHHALcA5Q0w9vU4HFnC0E5nXzmErgi8ApQDNwp/9bTgzHfHwbXYwrgb/EsgdmAJ26w/oGrRKKgDHAj7HOODX9eL9NAQ7swTH7YT6xBcAbWJXUcuN4H7vqkDDHsBZpesZkYYk+tq5GYG28zsKK+pUTe7nV8hBWorkc2d2FNRCnTuAf/Pd23WGysETfiVUwffkWuR2ei8Ewt+YqgQafkoYFcySWfD3MRaEmMr0chYVZTASq8tzbFb59hP8+wr+kq7GFhNrQ/iOw6hS1Ba61xq3Q6tD5q9yKmuzXcgTm9wuurzLP1HEf4GN53meEn2+4X1uDnk9ZWKIrk4C/c0EoNl8GvoQlix/pD/l64F+BxVidri+6KNwNzAHu8vv2ND+2xR/2FcC9wCp/6C8HmoCjXBxux8IztgKHuDi2A/dhoRcX+BiksYTy59yyqwFOB07w69sOzHaL6iHgDKARi027AOvdOMO31wL3+Gc9GPi2C1u7i/B/Ac/6ea8FFvm5xvhnnOPX0qzbVIIl62pyrAr4Jj3zKfUle2JBpo8D3wc2AecCN2OO/58BS4DLgGlYT8S0C91ZfsxirNb8JX7cVVjVjJP9wb8VmA+sxmLETgJucqE4DqsDlnbxeRbzR13jYvcu8BfAV/08TZhv6loX0UeAH2HVKy4GvgtsdqEb79YhLma3YHFrv8Ri144CrvPPlMTi3c4EpgP/48ff7Of7GVpZ1ZRQMAE4u8RfXKuxztOLsej4+92q2Q/4EFjrVs0Kf7jrXczuwoJTt/v2f/Hp1qdDU7L/8Ie/CavvVQk875bNh8ATbr0sAmb6tsf9mj7n1tApmEP9dd/3d26VpUP+qk4XlPbQ9jB/4sc+6ALUArwAPOyfZTe3uJ4Dfg6sAd4EfurCO0K3qgRLwGfdn1JK3vMHNGCzT9sKTVEbgNHA0sj2ZuDVkA+pDfh9REA6XSiCLtcd/n5LyIYedLqg1LtlBPBW5L0W0LP+jIcDL4XeFxe4OT7+o1xQn4zss8Z9ZsN1q0qwNB2EqZhju5R07OJ0J98x7RFrMbpP2sWwu1T7MdH0ozYXmJ64XtrybO8k65xPu1AKCZbIQ7CqNdDY4qIzIbK9DjgUWNmH7/WBi9a4yPZ96EZrtBBJn2JGVzLj/h6bdDtKsMSOqc/zIA4EmoFfYQ7ufciGK5zhry/sw/daC7wNfINsOEMt5hxvCO3X4s9SDeaLiqYzzcWc9Se6tVWJOe0vwHxnbbodu2+qiqFJKdrOZ3wq1R6aErVFpm4Z35YOTRlbIq/PxFYY/xFzxje4oNyE+X1GFphqdtLVKV5oW6ef435sNS9YDfykW0oLyPq93gCWA/+ErSze4Z8z8D0txRz3F/o0vBXzXf0a86kR+czhKawCTyVYokSk/aFe73//n0+XwhZGO3AbtrIH5vC+kdwyNVtcQPbFHONbXBQC/1Srn2Nx5P3/DVsJDPPz0PWEt63z398F/gZznE/EQhmS/vta32c1Fve1r1/DNuC/Q1PADJBwYZvsz91yPy7IPbwd+EPkOpqAH9Azv5sES4g+JCwiK+nqc0pjIQQBm+m6ShdYQU0hYYu+lq8RyII82+Z3Y9tmLBwiTFRcNkWmo6sKTGdfLSDk+a5jS4H9hyzyYQkhJFhCCCHBEkIMWeTDEsWiAlvyL/QlGawOZvrgfcZgPqX+XGGrxxYCtIonwRKDkD2x8IAG/7vG77/N/vdWrIZUUy/fZwS2gvjP5HfW99VzMw3LRXxZ/7USLDH4WI8l8wb1rs7AuvDc7n93kJtT2BsLa0/6N+WoAoujqtd/qwRLDE5ayQ1pOBpLr3lTQyMkWGKg35cHAntgPq1VWNxT2L81Bkt3CaaVi8lNSK50C24PzM+0CPNrBWkxq7HKDqPculuMNZEIqMWK7gXHN2FBpIV8bLXAp4CxmG+rCStMmAl9pqA6aiuW8jMSCzLdi9yKEWAVKRr8HEKCJcqUaqyo31eBdzCf1CSsiN1TLi4HYdHvVT7V3AuLIr/DH/oqrM7XJ1wQGvxcN2BpPre6eO2FpfZMdAG70aelozEf1SSsRM0YF7n7/BqijAeu9v3nYzmak7HKqb/xafDXsR6P6zD/XatPKe/Big5ejkW/B2J7HrYIcbduCQmWKF+OwsofX+pWSiVWAO9Wt4JWu/D8FqsS2uqC8kOslPEv3XI5DMvd+4ML1j1YueXH3QqqxxrFNvnv04FTsTLL3/JzXAh85NdwDFaJdCFWaDCgAkuObgjtX4WVVL7Kp7wHuABf7tbiMCyB+npgg1/jF7DUoYxfzxSs4qiImM1ClAsVWHLwLBeFoLLBa265TMEqNDRgFRtasLSWdVgidLDi2I4lGy/y6dkarDje0f56J1aN9F3/faNbQnG3fj6HJVh/5PunsdXAJFaeOcworNTy3aH9O7G678uAY7F69c9iRf/SLrLPuFi2Y5VIT3XLDj9mjV+/kIUlypTh7rvaz6dUYT7m07+JWA2pjZHXl7oABdOt1ZHXN5BNRt7m+4bZRLZLz3C65gqmfcp2SGR7UBl1RWR7OxZWcSDm35obeX2Lfw4wf9ZHLpQvucX2ICroJ8HaAR2oLlGpSfuDPCvPAz7aRWcfF5QqciuB7kZuWZkdBaBmKNyNOThnvnZf1SErKixMQS2sqLU42oVwq4twRei6asnWI9vq09uzXYh3JzcBXGhK2IVt5M+wF8WjHWthf6hPCZf7zxqse80hvn28C1eYYzEfUm/v6c3+fkFbr4AxmC/thcj+67EyM1+I7D8e88e94uJ7Yki0aoCvkFtP/1UXqiswx/5a3Q6ysHZEm99cX6H4he1ElqeAO7FVtRdcgE7CQgamY/WsZmM1qu5zwTgQawX2Y/J3remplfcwFpW/AStJMxJrNvsh1jgiet/MxBzyGzC/U71bS00+LezE6mPd4Nsa3Fp7PzJlfRL4HuaMV1svCVZhGlNJErH4HDfP6zQi/c5auvqRwHxH17mlcZJ/eWzBVtyCgnd3YuWFr3PLuAYrujcPW4Fb4sdELaFlLkj5Xg9W6zKYg/2HbrGd4dPPN/x9W/y5WUy2wekLmN/sQhfaKmyhIGjSOgFb1XzaLa+t/nNPSGAzvu9v6VlHHgnWEGaxf0MeqaEoiiX1dJ7tGf8/uIxsHfVwWeVg2vYTf72C7Mpbxn+PVijFLaNXfL98r8/21wMBedlFJ3hGtpNbtvk2sn6wdGT/oBR0sP9xmEP9RrKVTD+DrTAG1UTrsdCHn6CEaglWN/kQC/Y7FPWC62/au/F6+06mbi0FBC9fSeEOsg71nb0enu617cCFQDf3nwt8DWsYOxeLAzsNK7ccrBTu7+K7ULdGYeR0z50WZrDGAHM1GqIPWYX53F7DFg5GYa3rZ4SstHVY/faPNFyysHrqW7nFb6w9NByij1iHBbvuSNS0Si0Lq8dWFsCLWCrINo2IEBKschetdizZ9h4UTNrXxOlZ1+Se3sP1WHJ02AdZoWdDgjXYRWurTw3vJ7dsiejd/XY5lhPYF4zC4pbGhrZNAR4APu5/TwIuIVs4sDsMAy4mN7BTSLDKXrQ2YmVGfkB2OVrsOhVu+fSV77QOq8AQjpt7Efg22VzAiVjCck8F60tY/JSQYA0o0dqExdx8HYvVUUJq/4lZxQ5eizawGO7Tv9383zrf7yOsqkIrlq9X5/vsTjauq6rAewWCuru/X13ovNH99OyUAK0Sdk+02hKx+HNYmsaJ/g1+MJa8WtXL0+8sUXcwc4SP4ztYSlQtFq0+y4WnAqsqeqpbO61Ye/vZvu0cP/42LGr++y44p2PVDr6HBW0ehJV/+TXwn779f8mNeToIq3m1DatV9RksReYtP2+zi9cULM+w0u+Hp+ja6l5IsEouWhngw0QsPtNv0n2xhNvjsWqUY/2B6qm/ayi3ijoMuAkrr/KAP/jnYJkG12AVQW93kXkUS3i+0kXpWSwv7w6fsi/HKiMcjFX2fBhrejEf85tNwwKDq4BGrJJoWLAm+ZfRlVilhOlY5535ft5qF7oDsEJ7rVhCdlCoT/FTEqyyFa5NwMJELL7Qb976kB/lgx6ecqOfb9wQdkvcjNWBymB1re71L4QJWJ7gc1iu3zIsLWecj9v7Lvjvk5tIDBYJvxarvNCC1avaxs676TRjeYYtfmxw3ikusBeR7e6zCEu4PhNbVRYSrLIWL7B0jmayibA9pRlYSXZVa6ixxK2YYFr8nlsrE/21dVi/wlmYb+odn4oVm4NcvKrJXT1cAhwuwZJgDRW2uv9lyhD9/C3kFtMLfHoVbiFdiiUO/6lbN+uwJOKmPr6OncVqjcH8WtMi20f69DJcnE9IsAbvFDMRi7/lUxitPOWyB+avehrzWU3EOupcifmNeiNOVXkEqWonlvBszAEf5gBsVVFiVST/gSg9z6AaSPk4FHO+D3cr7H1swWMsFnaQ7sZ9HCxoBGLUgfnBPh46rhaL1Qq+wNNYhkM4dmsB5tAfjfnNgvI057kFKGRhDRmWAAng3CHwWTM92Gch8NfYSmJQluUUrDLndt/vPWz17g2s802UwO90BVYA8FdYytUNLlQpF6u9ySYft2F+xfOxSqevYrWyZgN3Ab/AnP6nuBV4u25hCdZQmhZ2JGLxB/0BGDuIP2oaeAJznIM50SvJDeto933ec4H5W+DzLhybsAJ3gZN+u0/RjvN7udVFZwbZAN91wLXAp92yasNWHTe6UB3lQncHttobNLG4A4vLGunHtWKxXMf4MTV+Hc9j4RJCgjWkeBF4DAtKHQg15TO7eMxjob/nAr+LnKsTi8kKWOUWTSFWYDFXYR6JiOTv/SfMPP8pxEqsVnuYrZgv7VndrqVBPqzysbLasJieeQPkkjdTuFVWfwufkGCJMmAJ1lhhxQC41pV0LSkshARrCFlZYB1YrhgAorV06tJUPuuoA4so367/USHBGvyilcYSc8/FVqY6y/AyW7A0mXy8jC0eXEH+Zg9C7DJyupepaCVi8eeBs7Bed+dj+XPl8gWzCGuokO/a12HL/0LIwhpK08PGVLIJW7Y/GUsQTmLO7lJWd8hgXYy1lC9kYYkuwtUGvJ6IxRdgnYT3x6oYHIClkzQV+ZKWA08W8F8JIcES/+/bWu0/pSKNRYmr2afQlFCUNRms2ueMqUtTnRoOIcES5cxCLBFZzT6FBEuUNW8DlwHJqUtTGg0hwRJlSRorXXwu8KIc7aLUyOkuCtGM1aufDjTJshISLFFuZLD4qieBh4A5U5em1PVaSLBEyenEOtFUYp1+3sIqRbwKvCmhEhIsUU58AJyNFbTbCGyaujSl6gtCCCGEEEIIIYQQQgghhBBDgT8CiKUxU3xRK9MAAAAldEVYdGRhdGU6Y3JlYXRlADIwMTgtMDktMjZUMDE6NTM6MTQtMDY6MDAW9Uu5AAAAJXRFWHRkYXRlOm1vZGlmeQAyMDE4LTA5LTI2VDAxOjUzOjE0LTA2OjAwZ6jzBQAAABl0RVh0U29mdHdhcmUAQWRvYmUgSW1hZ2VSZWFkeXHJZTwAAAAASUVORK5CYII=;" vertex="1" parent="1">
          <mxGeometry x="-70" y="-980" width="360.9" height="160" as="geometry" />
        </mxCell>
        <mxCell id="Mrcp-kGoiIC98MKb-wke-3" value="Student_Takes_Exam" style="swimlane;whiteSpace=wrap;html=1;fillColor=#B0E3E6;" vertex="1" parent="1">
          <mxGeometry x="520" y="230" width="160" height="160" as="geometry" />
        </mxCell>
        <mxCell id="Mrcp-kGoiIC98MKb-wke-4" value="St_ID (FK)" style="text;align=left;verticalAlign=top;spacingLeft=4;spacingRight=4;overflow=hidden;rotatable=0;points=[[0,0.5],[1,0.5]];portConstraint=eastwest;fillColor=#FFF2CC;strokeColor=#9673a6;" vertex="1" parent="Mrcp-kGoiIC98MKb-wke-3">
          <mxGeometry y="20" width="160" height="35" as="geometry" />
        </mxCell>
        <mxCell id="Mrcp-kGoiIC98MKb-wke-5" value="Exam_ID (FK) (Composite)" style="text;align=left;verticalAlign=top;spacingLeft=4;spacingRight=4;overflow=hidden;rotatable=0;points=[[0,0.5],[1,0.5]];portConstraint=eastwest;fillColor=#FFF2CC;strokeColor=#9673a6;" vertex="1" parent="Mrcp-kGoiIC98MKb-wke-3">
          <mxGeometry y="55" width="160" height="35" as="geometry" />
        </mxCell>
        <mxCell id="Mrcp-kGoiIC98MKb-wke-6" value="Exam_Percentage" style="text;align=left;verticalAlign=top;spacingLeft=4;spacingRight=4;overflow=hidden;rotatable=0;points=[[0,0.5],[1,0.5]];portConstraint=eastwest;" vertex="1" parent="Mrcp-kGoiIC98MKb-wke-3">
          <mxGeometry y="90" width="160" height="22" as="geometry" />
        </mxCell>
        <mxCell id="jgVsfVoLLlYG1_dPBXGE-1" value="St_Status" style="text;align=left;verticalAlign=top;spacingLeft=4;spacingRight=4;overflow=hidden;rotatable=0;points=[[0,0.5],[1,0.5]];portConstraint=eastwest;" vertex="1" parent="Mrcp-kGoiIC98MKb-wke-3">
          <mxGeometry y="120" width="200" height="26" as="geometry" />
        </mxCell>
        <mxCell id="Mrcp-kGoiIC98MKb-wke-7" value="" style="endArrow=none;html=1;rounded=0;" edge="1" parent="1">
          <mxGeometry width="50" height="50" relative="1" as="geometry">
            <mxPoint x="490" y="300" as="sourcePoint" />
            <mxPoint x="520" y="300" as="targetPoint" />
          </mxGeometry>
        </mxCell>
        <mxCell id="Mrcp-kGoiIC98MKb-wke-9" value="" style="endArrow=classic;html=1;rounded=0;" edge="1" parent="1">
          <mxGeometry width="50" height="50" relative="1" as="geometry">
            <mxPoint x="490" y="410" as="sourcePoint" />
            <mxPoint x="430" y="410" as="targetPoint" />
          </mxGeometry>
        </mxCell>
        <mxCell id="Mrcp-kGoiIC98MKb-wke-10" value="" style="endArrow=none;html=1;rounded=0;" edge="1" parent="1">
          <mxGeometry width="50" height="50" relative="1" as="geometry">
            <mxPoint x="680" y="270" as="sourcePoint" />
            <mxPoint x="810" y="270" as="targetPoint" />
          </mxGeometry>
        </mxCell>
        <mxCell id="Mrcp-kGoiIC98MKb-wke-11" value="" style="endArrow=none;html=1;rounded=0;" edge="1" parent="1">
          <mxGeometry width="50" height="50" relative="1" as="geometry">
            <mxPoint x="810" y="270" as="sourcePoint" />
            <mxPoint x="810" y="-100" as="targetPoint" />
          </mxGeometry>
        </mxCell>
        <mxCell id="Mrcp-kGoiIC98MKb-wke-12" value="" style="endArrow=classic;html=1;rounded=0;" edge="1" parent="1" target="VbPNYPBAlCRiUKL5gvJH-100">
          <mxGeometry width="50" height="50" relative="1" as="geometry">
            <mxPoint x="810" y="-100" as="sourcePoint" />
            <mxPoint x="860" y="-150" as="targetPoint" />
          </mxGeometry>
        </mxCell>
      </root>
    </mxGraphModel>
  </diagram>
</mxfile>
